<svg width="1000" height="1000" xmlns="http://www.w3.org/2000/svg" xml:space="preserve" version="1.1">

 <g>
  <title>Layer 1</title>
  <g id="XMLID_278_">
   <polyline stroke-miterlimit="10" stroke-linejoin="round" stroke-linecap="round" stroke-width="6" stroke="#E5E5E5" fill="none" points="243.9,634.7 243.9,665.6 182,665.6  " class="st1" id="XMLID_285_"/>
   <polyline stroke-miterlimit="10" stroke-linejoin="round" stroke-linecap="round" stroke-width="6" stroke="#E5E5E5" fill="none" points="305.7,665.6 243.9,665.6 243.9,634.7  " class="st1" id="XMLID_284_"/>
   <rect stroke-miterlimit="10" stroke-linejoin="round" stroke-linecap="round" stroke-width="6" stroke="#E5E5E5" fill="none" height="30.9" width="61.9" class="st1" y="665.6" x="212.9" id="XMLID_283_"/>
   <polyline stroke-miterlimit="10" stroke-linejoin="round" stroke-linecap="round" stroke-width="6" stroke="#E5E5E5" fill="none" points="261.4,727.5 243.9,727.5 243.9,696.5 305.7,696.5  " class="st1" id="XMLID_282_"/>
   <polyline stroke-miterlimit="10" stroke-linejoin="round" stroke-linecap="round" stroke-width="6" stroke="#E5E5E5" fill="none" points="182,696.5 243.9,696.5 243.9,727.5 193.7,727.5  " class="st1" id="XMLID_281_"/>
   <polyline stroke-miterlimit="10" stroke-linejoin="round" stroke-linecap="round" stroke-width="6" stroke="#E5E5E5" fill="none" points="160.9,665.6 212.9,665.6 212.9,696.5 182,696.5  " class="st1" id="XMLID_280_"/>
   <polyline stroke-miterlimit="10" stroke-linejoin="round" stroke-linecap="round" stroke-width="6" stroke="#E5E5E5" fill="none" points="319.4,696.5 274.8,696.5 274.8,665.6 296.2,665.6  " class="st1" id="XMLID_279_"/>
  </g>
  <g id="XMLID_2_">
   <polyline stroke-miterlimit="10" stroke-linejoin="round" stroke-linecap="round" stroke-width="6" stroke="#E5E5E5" fill="none" points="817.6,441.4 817.6,472.3 879.5,472.3  " class="st1" id="XMLID_49_"/>
   <polyline stroke-miterlimit="10" stroke-linejoin="round" stroke-linecap="round" stroke-width="6" stroke="#E5E5E5" fill="none" points="755.8,472.3 817.6,472.3 817.6,441.4  " class="st1" id="XMLID_38_"/>
   <rect stroke-miterlimit="10" stroke-linejoin="round" stroke-linecap="round" stroke-width="6" stroke="#E5E5E5" fill="none" height="30.9" width="61.9" class="st1" transform="matrix(-1 -4.487045e-11 4.487045e-11 -1 1635.2858 975.629)" y="472.3" x="786.7" id="XMLID_37_"/>
   <polyline stroke-miterlimit="10" stroke-linejoin="round" stroke-linecap="round" stroke-width="6" stroke="#E5E5E5" fill="none" points="800.1,534.2 817.6,534.2 817.6,503.3 755.8,503.3  " class="st1" id="XMLID_26_"/>
   <polyline stroke-miterlimit="10" stroke-linejoin="round" stroke-linecap="round" stroke-width="6" stroke="#E5E5E5" fill="none" points="879.5,503.3 817.6,503.3 817.6,534.2 867.8,534.2  " class="st1" id="XMLID_8_"/>
   <polyline stroke-miterlimit="10" stroke-linejoin="round" stroke-linecap="round" stroke-width="6" stroke="#E5E5E5" fill="none" points="900.6,472.3 848.6,472.3 848.6,503.3 879.5,503.3  " class="st1" id="XMLID_4_"/>
   <polyline stroke-miterlimit="10" stroke-linejoin="round" stroke-linecap="round" stroke-width="6" stroke="#E5E5E5" fill="none" points="742.1,503.3 786.7,503.3 786.7,472.3 765.3,472.3  " class="st1" id="XMLID_3_"/>
  </g>
  <g id="XMLID_288_">
   <circle stroke-miterlimit="10" stroke-linejoin="round" stroke-linecap="round" stroke-width="6" stroke="#E5E5E5" fill="none" r="56" cy="251.9" cx="587" class="st1" id="XMLID_175_"/>
   <line stroke-miterlimit="10" stroke-linejoin="round" stroke-linecap="round" stroke-width="6" stroke="#E5E5E5" fill="none" y2="207" x2="587" y1="201.6" x1="587" class="st1" id="XMLID_178_"/>
   <line stroke-miterlimit="10" stroke-linejoin="round" stroke-linecap="round" stroke-width="6" stroke="#E5E5E5" fill="none" y2="302.1" x2="587" y1="296.7" x1="587" class="st1" id="XMLID_179_"/>
   <line stroke-miterlimit="10" stroke-linejoin="round" stroke-linecap="round" stroke-width="6" stroke="#E5E5E5" fill="none" y2="251.9" x2="631.9" y1="251.9" x1="637.3" class="st1" id="XMLID_180_"/>
   <line stroke-miterlimit="10" stroke-linejoin="round" stroke-linecap="round" stroke-width="6" stroke="#E5E5E5" fill="none" y2="251.9" x2="536.7" y1="251.9" x1="542.2" class="st1" id="XMLID_177_"/>
   <circle fill="#E5E5E5" r="4.5" cy="251.9" cx="587" class="st2" id="XMLID_181_"/>
   <line stroke-miterlimit="10" stroke-linejoin="round" stroke-linecap="round" stroke-width="4" stroke="#E5E5E5" fill="none" y2="222" x2="611.2" y1="251.9" x1="587" class="st3" id="XMLID_183_"/>
   <line stroke-miterlimit="10" stroke-linejoin="round" stroke-linecap="round" stroke-width="6" stroke="#E5E5E5" fill="none" y2="251.9" x2="587" y1="236.9" x1="571.8" class="st1" id="XMLID_184_"/>
  </g>
  <g id="XMLID_23_">
   <rect stroke-miterlimit="10" stroke-linejoin="round" stroke-linecap="round" stroke-width="8" stroke="#E5E5E5" fill="none" height="125.3" width="123.3" class="st4" y="252.9" x="135.8" id="XMLID_22_"/>
   <rect stroke-miterlimit="10" stroke-linejoin="round" stroke-linecap="round" stroke-width="4" stroke="#E5E5E5" fill="none" height="88.9" width="86.5" class="st3" transform="matrix(-1.836970e-16 1 -1 -1.836970e-16 513.0942 118.1157)" y="271.2" x="154.3" id="XMLID_114_"/>
   <rect stroke-miterlimit="10" stroke-linejoin="round" stroke-linecap="round" stroke-width="8" stroke="#E5E5E5" fill="none" height="77.8" width="108.6" class="st4" y="213" x="289.2" id="XMLID_18_"/>
   <rect stroke-miterlimit="10" stroke-linejoin="round" stroke-linecap="round" stroke-width="4" stroke="#E5E5E5" fill="none" height="76.7" width="45.9" class="st3" transform="matrix(-1.836970e-16 1 -1 -1.836970e-16 595.3908 -91.6892)" y="213.5" x="320.6" id="XMLID_122_"/>
   <rect stroke-miterlimit="10" stroke-linejoin="round" stroke-linecap="round" stroke-width="4" stroke="#E5E5E5" fill="none" height="47.7" width="72.6" class="st3" transform="matrix(-1.836970e-16 1 -1 -1.836970e-16 705.4474 47.4194)" y="352.6" x="292.7" id="XMLID_115_"/>
   <rect stroke-miterlimit="10" stroke-linejoin="round" stroke-linecap="round" stroke-width="8" stroke="#E5E5E5" fill="none" height="104.5" width="79.6" class="st4" y="324.2" x="289.2" id="XMLID_17_"/>
  </g>
  <line stroke-miterlimit="10" stroke-linejoin="round" stroke-linecap="round" stroke-width="6" stroke="#A83727" fill="none" y2="784.2" x2="841.7" y1="784.2" x1="833.8" class="st5" id="XMLID_59_"/>
  <line stroke-miterlimit="10" stroke-linejoin="round" stroke-linecap="round" stroke-width="6" stroke="#A83727" fill="none" y2="784.2" x2="820.8" y1="784.2" x1="802.3" class="st5" id="XMLID_56_"/>
  <line stroke-miterlimit="10" stroke-linejoin="round" stroke-linecap="round" stroke-width="6" stroke="#A83727" fill="none" y2="784.2" x2="788.3" y1="784.2" x1="473" class="st5" id="XMLID_54_"/>
  <line stroke-miterlimit="10" stroke-linejoin="round" stroke-linecap="round" stroke-width="6" stroke="#A83727" fill="none" y2="784.2" x2="452" y1="784.2" x1="200" class="st5" id="XMLID_53_"/>
  <line stroke-miterlimit="10" stroke-linejoin="round" stroke-linecap="round" stroke-width="6" stroke="#A83727" fill="none" y2="784.2" x2="178.5" y1="784.2" x1="156.5" class="st5" id="XMLID_52_"/>
  <line stroke-miterlimit="10" stroke-linejoin="round" stroke-linecap="round" stroke-width="6" stroke="#A83727" fill="none" y2="784.2" x2="138.5" y1="784.2" x1="126.5" class="st5" id="XMLID_57_"/>
  <g id="svg_1">
   <path fill="#6DCCA3" d="m330.9,674.4c-18.2,-11.6 -50.3,-32 -64.2,-74.4c-9.7,-29.6 -9.9,-66.8 0.5,-70.3c12.1,-4 33.2,38.8 40.9,35.1c6.1,-2.9 -6.6,-29.4 -8.3,-74.3c-1.2,-30.6 3.2,-56.9 17,-80.3c6.3,-10.7 10.9,-18.6 16,-18c20.9,2.4 15,144 37.3,146.7c10.5,1.3 18.9,-29.2 30.7,-26.7c10,2.1 16.7,26.8 18.5,42.8c0.1,0.8 0.2,1.4 0.2,1.9c5.2,51.9 -25.1,89.3 -35.3,102c-15.3,18.8 -25.6,22.6 -33.6,22.7c-8.4,-0.1 -14.8,-4 -19.7,-7.2z" class="st6" id="XMLID_28_"/>
   <path stroke-miterlimit="10" stroke-linejoin="round" stroke-linecap="round" stroke-width="6" stroke="#465172" fill="none" d="m325.5,477c3.5,37 24.5,93.3 27.6,141c2,31.1 0.1,58.5 -3,81" class="st7" id="XMLID_41_"/>
   <path fill="#2359B2" d="m422,784.2l-155,0l0,0c-15.6,-27.6 -15,-61.5 1.5,-88.5l22.8,-37.3l106.3,0l22.1,34.5c16.4,25.5 18.3,57.8 5.2,85.1l-2.9,6.2z" class="st8" id="XMLID_25_"/>
   <path stroke-miterlimit="10" stroke-linejoin="round" stroke-linecap="round" stroke-width="6" stroke="#465172" fill="none" d="m375,561.9c0,0 -0.4,17 -23.8,39.1" class="st7" id="XMLID_44_"/>
   <path stroke-miterlimit="10" stroke-linejoin="round" stroke-linecap="round" stroke-width="6" stroke="#465172" fill="none" d="m301.1,601c0,0 15.7,32 52.8,32" class="st7" id="XMLID_47_"/>
   <path stroke-miterlimit="10" stroke-linejoin="round" stroke-linecap="round" stroke-width="6" stroke="#1E2A54" fill="none" opacity="0.67" d="m382.3,684.8c0,0 23.6,15.4 23.6,52.3" class="st9" id="XMLID_48_"/>
  </g>
  <g id="svg_107">
   <path fill="#D6D6D6" d="m523.6,794c0,29.2 49.9,53 111.4,53c48.2,0 89.2,-14.5 104.7,-34.9l-116.5,8.4l-99.6,-26.5z" class="st10" id="XMLID_14_"/>
   <path fill="#F78A21" d="m723.7,791.1c-2.9,-0.6 -6,-0.3 -8.7,0.8c-17.6,6.9 -48.4,11.5 -83.4,11.5c-54.7,0 -99,-11.2 -99,-25c0,-12.2 34.7,-22.4 80.6,-24.6l3.2,-16.7c-62.9,3.9 -110.7,23.4 -110.7,46.8c0,26.2 60,47.5 134,47.5c32.4,0 62.1,-4.1 85.3,-10.9c15,-4.5 14.1,-26.2 -1.3,-29.4l0,0z" class="st11" id="XMLID_15_"/>
   <path fill="#9B463D" opacity="0.26" d="m671.1,801.3l48,-10.5c0,0 12.6,1.3 14.9,8c4,11.4 -4.2,18.4 -4.2,18.4s-3.1,-26.4 -58.7,-15.9z" class="st12" id="XMLID_51_"/>
   <path stroke-miterlimit="10" stroke-linejoin="round" stroke-linecap="round" stroke-width="6" stroke="#A83727" fill="none" d="m723.7,791.1c-2.9,-0.6 -6,-0.3 -8.7,0.8c-17.6,6.9 -48.4,11.5 -83.4,11.5c-54.7,0 -99,-11.2 -99,-25c0,-12.2 34.7,-22.4 80.6,-24.6l3.2,-16.7c-62.9,3.9 -110.7,23.4 -110.7,46.8c0,26.2 60,47.5 134,47.5c32.4,0 62.1,-4.1 85.3,-10.9c15,-4.5 14.1,-26.2 -1.3,-29.4l0,0z" class="st5" id="XMLID_21_"/>
   <path fill="#F78A21" d="m714.3,439.9c-16,-5.1 -33.7,-8 -52.2,-8c-18.4,0 -35.9,2.8 -51.9,7.8c-9.7,-22.7 -22.9,-41.2 -36.8,-52.7c-2.2,-1.8 -5.5,-1.2 -6.9,1.3c-27.7,50.1 -40.1,107.4 -34.9,169.9c4.8,69.8 31.7,146.5 57.2,225.8l146.8,0c25.6,-79.2 52.2,-155.1 57.2,-224c5.5,-62.9 -7.1,-120.4 -35.6,-171c-1.4,-2.5 -4.7,-3.1 -6.9,-1.3c-13.6,11.6 -26.5,29.8 -36,52.2z" class="st11" id="XMLID_27_"/>
   <path fill="#9B463D" opacity="0.26" d="m674.4,533.9c0,3.7 -5.5,6.7 -12.4,6.7c-6.8,0 -12.4,-3 -12.4,-6.7l12.5,-2.8l12.3,2.8z" class="st12" id="XMLID_55_"/>
   <path fill="#9B463D" opacity="0.26" d="m713.3,782.6c0,0 0,-7.9 1.5,-14.5c13.2,-58.7 4.5,-76.8 4.5,-76.8l-27.8,91.5l21.8,-0.2z" class="st12" id="XMLID_40_"/>
   <path fill="#9B463D" opacity="0.26" d="m608.8,782.6c0,0 0,-7.9 -1.5,-14.5c-13.2,-58.7 -4.5,-76.8 -4.5,-76.8l27.8,91.5l-21.8,-0.2z" class="st12" id="XMLID_42_"/>
   <path stroke-miterlimit="10" stroke-linejoin="round" stroke-linecap="round" stroke-width="6" stroke="#A83727" fill="none" d="m714.3,439.9c-16,-5.1 -33.7,-8 -52.2,-8c-18.4,0 -35.9,2.8 -51.9,7.8c-9.7,-22.7 -22.9,-41.2 -36.8,-52.7c-2.2,-1.8 -5.5,-1.2 -6.9,1.3c-27.7,50.1 -40.1,107.4 -34.9,169.9c4.8,69.8 31.7,146.5 57.2,225.8l146.8,0c25.6,-79.2 52.2,-155.1 57.2,-224c5.5,-62.9 -7.1,-120.4 -35.6,-171c-1.4,-2.5 -4.7,-3.1 -6.9,-1.3c-13.6,11.6 -26.5,29.8 -36,52.2z" class="st5" id="XMLID_16_"/>
   <circle fill="#A83727" r="8" cy="479.8" cx="620.6" class="st13" id="XMLID_6_"/>
   <circle fill="#A83727" r="8" cy="479.8" cx="703.6" class="st13" id="XMLID_12_"/>
   <path fill="#A83727" d="m668.8,506.7c-4.4,-0.4 -8.8,-0.4 -13.2,0c-2.1,0.2 -2.8,2.3 -1.2,3.4c1.4,0.9 2.8,1.8 4.2,2.8c2,1.4 5.3,1.4 7.3,0c1.4,-1 2.8,-1.9 4.2,-2.8c1.5,-1.1 0.7,-3.2 -1.3,-3.4z" class="st13" id="XMLID_13_"/>
   <g id="XMLID_32_">
    <path fill="#F78A21" d="m719.1,694.2c-1.7,29.5 -15.4,60.5 -24.8,90c-9.7,0 -32.2,0 -32.2,0l0.2,-83.1" class="st11" id="XMLID_39_"/>
    <path fill="#F78A21" d="m605,694.2c1.7,29.5 18.4,60.5 27.8,90c9.7,0 29.2,0 29.2,0l-0.2,-83.1" class="st11" id="XMLID_34_"/>
   </g>
   <g id="XMLID_5_">
    <path stroke-miterlimit="10" stroke-linejoin="round" stroke-linecap="round" stroke-width="6" stroke="#A83727" fill="none" d="m680.5,533c-1.8,1 -4,1.6 -6.2,1.6c-6.7,0 -12.1,-4.9 -12.1,-10.9" class="st5" id="XMLID_10_"/>
    <path stroke-miterlimit="10" stroke-linejoin="round" stroke-linecap="round" stroke-width="6" stroke="#A83727" fill="none" d="m643.7,533c1.8,1 4,1.6 6.2,1.6c6.7,0 12.1,-4.9 12.1,-10.9" class="st5" id="XMLID_7_"/>
   </g>
   <g id="XMLID_29_">
    <path stroke-miterlimit="10" stroke-linejoin="round" stroke-linecap="round" stroke-width="6" stroke="#A83727" fill="none" d="m719.1,694.2c-1.7,29.5 -18.4,60.5 -27.8,90c-9.7,0 -29.2,0 -29.2,0l0.2,-83.1" class="st5" id="XMLID_11_"/>
    <path stroke-miterlimit="10" stroke-linejoin="round" stroke-linecap="round" stroke-width="6" stroke="#A83727" fill="none" d="m605,694.2c1.7,29.5 15.4,60.5 24.8,90c9.7,0 32.2,0 32.2,0l-0.2,-83.1" class="st5" id="XMLID_30_"/>
   </g>
   <path fill="#9B463D" opacity="0.26" d="m729.1,451.4c7.4,-22.7 18.2,-28.5 18.2,-28.5s7.8,2.9 7.8,33.8" class="st12" id="XMLID_31_"/>
   <path fill="#9B463D" opacity="0.26" d="m595.1,451.4c-7.4,-22.7 -18.2,-28.5 -18.2,-28.5s-7.8,2.9 -7.8,33.8" class="st12" id="XMLID_33_"/>
   <line stroke-miterlimit="10" stroke-linejoin="round" stroke-linecap="round" stroke-width="6" stroke="#A83727" fill="none" y2="783.5" x2="646.8" y1="772.2" x1="644.3" class="st5" id="XMLID_45_"/>
   <line stroke-miterlimit="10" stroke-linejoin="round" stroke-linecap="round" stroke-width="6" stroke="#A83727" fill="none" y2="783.5" x2="677.4" y1="772.2" x1="679.9" class="st5" id="XMLID_46_"/>
   <g opacity="0.24" class="st14" id="XMLID_1_">
    <path stroke-miterlimit="10" stroke-linejoin="round" stroke-linecap="round" stroke-width="2" stroke="#A83727" fill="none" d="m707,528.7c12.1,3.2 24.6,3.8 36.6,2" class="st15" id="XMLID_19_"/>
    <path stroke-miterlimit="10" stroke-linejoin="round" stroke-linecap="round" stroke-width="2" stroke="#A83727" fill="none" d="m703.6,536.3c11,7 22.4,11.8 33.4,14.3" class="st15" id="XMLID_20_"/>
    <path stroke-miterlimit="10" stroke-linejoin="round" stroke-linecap="round" stroke-width="2" stroke="#A83727" fill="none" d="m707,517.9c9.9,-0.7 20.1,-3.4 30,-8.1" class="st15" id="XMLID_35_"/>
    <path stroke-miterlimit="10" stroke-linejoin="round" stroke-linecap="round" stroke-width="2" stroke="#A83727" fill="none" d="m617.2,528.7c-12.1,3.2 -24.6,3.8 -36.6,2" class="st15" id="XMLID_50_"/>
    <path stroke-miterlimit="10" stroke-linejoin="round" stroke-linecap="round" stroke-width="2" stroke="#A83727" fill="none" d="m620.6,536.3c-11,7 -22.4,11.8 -33.4,14.3" class="st15" id="XMLID_43_"/>
    <path stroke-miterlimit="10" stroke-linejoin="round" stroke-linecap="round" stroke-width="2" stroke="#A83727" fill="none" d="m617.2,517.9c-9.9,-0.7 -20.1,-3.4 -30,-8.1" class="st15" id="XMLID_36_"/>
   </g>
  </g>
  <text transform="matrix(2.17562 0 0 2.3933 -974.866 -469.759)" stroke="#000" font-style="normal" font-weight="normal" xml:space="preserve" text-anchor="start" font-family="'Rounded Mplus 1c Black'" font-size="39" id="svg_108" y="311.03172" x="793.46287" stroke-width="0" fill="#c9c9c9">404</text>
  <text transform="matrix(0.846893 0 0 0.877781 102.556 27.696)" stroke="#ffffff" xml:space="preserve" text-anchor="start" font-family="'Rounded Mplus 1c Black'" font-size="39" id="svg_109" y="308.8578" x="715.49988" fill="#aaaaaa">page not found</text>
 </g>
</svg>