<svg width="1000" height="1000" xmlns="http://www.w3.org/2000/svg" xml:space="preserve" version="1.1">

 <g>
  <title>Layer 1</title>
  <g id="XMLID_43_">
   <path stroke-miterlimit="10" stroke-linejoin="round" stroke-linecap="round" stroke-width="4" stroke="#000000" fill="#282323" d="m379.5,713.2c3.3,-10.7 13.4,-16.4 29.8,-21.2c10.4,-3 23.6,-4.4 44.3,-8.6c10.1,-2 17.2,-6 17.2,-6l0,11.5c0,0 -68.5,13.5 -79.2,31.2c-5.2,8.7 -3.6,30 20.9,32.2c-7.5,1.1 -19.8,-0.8 -26.4,-7.5c-8.2,-8.3 -10.4,-19.4 -6.6,-31.6z" class="st3" id="XMLID_1211_"/>
   <path fill="#442C2A" d="m470.8,688.9c0,0 -41,7.6 -62.9,17c-19.2,8.3 -18.6,16.9 -19.1,25.7c-0.3,5.1 3.3,17.7 17.9,19.9c17.4,2.6 37.9,-0.2 64.1,-16.9c0,-40.9 0,-45.7 0,-45.7z" class="st4" id="XMLID_1210_"/>
   <path fill="#442C2A" opacity="0.37" d="m388.8,731.6c0.4,-7.1 0.1,-14.1 10.1,-20.9c-0.4,2.5 -0.5,4.9 -0.6,7.4c-0.3,5.1 12,-1.5 26.6,0.6c15.2,2.3 24.2,19.7 45.9,8c0,2.5 0,5.1 0,7.8c-26.2,16.7 -46.7,19.4 -64.1,16.9c-14.6,-2.1 -18.2,-14.8 -17.9,-19.8z" class="st5" id="XMLID_53_"/>
   <path stroke-miterlimit="10" stroke-linejoin="round" stroke-linecap="round" stroke-width="4" stroke="#000000" fill="none" d="m470.8,688.9c0,0 -41,7.6 -62.9,17c-19.2,8.3 -18.6,16.9 -19.1,25.7c-0.3,5.1 3.3,17.7 17.9,19.9c17.4,2.6 37.9,-0.2 64.1,-16.9c0,-40.9 0,-45.7 0,-45.7z" class="st6" id="XMLID_47_"/>
   <path stroke-miterlimit="10" stroke-linejoin="round" stroke-linecap="round" stroke-width="4" stroke="#000000" fill="none" d="m432.8,712.4c-3.3,1.8 -2.5,19.3 5.5,21.7" class="st6" id="XMLID_46_"/>
   <path stroke-miterlimit="10" stroke-linejoin="round" stroke-linecap="round" stroke-width="4" stroke="#000000" fill="none" d="m445.3,711.1c-3.4,4.8 -1,16.1 5.1,18.9" class="st6" id="XMLID_45_"/>
   <path stroke-miterlimit="10" stroke-linejoin="round" stroke-linecap="round" stroke-width="4" stroke="#000000" fill="none" d="m456.8,707.1c-3.4,4.8 -1,16.1 5.1,18.9" class="st6" id="XMLID_44_"/>
  </g>
  <path fill="#151E28" d="m574.8,655.3c-21.6,15 -52.3,23.6 -84.4,23.6c-32,0 -62.8,-8.6 -84.4,-23.6c-9.9,-6.9 -26.5,-21.3 -26.5,-40.5s16.6,-33.6 26.5,-40.5c21.6,-15 52.3,-23.6 84.4,-23.6c32,0 62.8,8.6 84.4,23.6c9.9,6.9 26.5,21.3 26.5,40.5s-16.6,33.6 -26.5,40.5z" class="st7" id="XMLID_77_"/>
  <path fill="#2A3749" d="m673.7,630.8c-0.4,2 -0.8,3.9 -1.4,5.9c-15.6,56.9 -90.8,100.1 -181.3,100.1c-90.7,0 -166.1,-43.4 -181.4,-100.5c-0.4,-1.6 -0.8,-3.2 -1.1,-4.8c-0.4,-3 -0.3,-6 0.3,-9c3.7,-16.8 24.1,-26.5 45.6,-21.7c14.1,3.1 25.1,11.8 30,22.1c0.5,2.2 1.3,4.4 2.2,6.5c5.2,12 15.6,21 22.6,26c20.9,15 50.8,23.6 81.8,23.6c31.1,0 60.9,-8.6 81.8,-23.6c7.1,-5.1 17.6,-14.2 22.7,-26.2c0.8,-1.9 1.5,-4 2,-6c4.8,-10.4 15.9,-19.1 30.1,-22.3c21.5,-4.8 41.9,5 45.6,21.7c0.7,2.6 0.8,5.4 0.5,8.2z" class="st8" id="XMLID_76_"/>
  <path fill="#151E28" opacity="0.67" d="m673.2,622.4c-0.1,-0.5 -0.2,-0.9 -0.4,-1.4c-0.3,1.6 -0.7,3.3 -1.2,4.9c-15.4,56.9 -90.7,100.1 -181.1,100.1c-90.7,0 -166.1,-43.4 -181.4,-100.5c-0.2,-0.6 -0.3,-1.2 -0.5,-1.9c-0.4,2.6 -0.5,5.2 -0.1,7.7c0.3,1.6 0.7,3.2 1.1,4.8c15.3,57.1 90.7,100.5 181.4,100.5c90.5,0 165.7,-43.2 181.3,-100.1c0.5,-1.9 1,-3.9 1.4,-5.9c0.3,-2.6 0.2,-5.4 -0.5,-8.2z" class="st9" id="XMLID_1209_"/>
  <path stroke-miterlimit="10" stroke-linejoin="round" stroke-linecap="round" stroke-width="4" stroke="#000000" fill="none" d="m673.7,630.8c-0.4,2 -0.8,3.9 -1.4,5.9c-15.6,56.9 -90.8,100.1 -181.3,100.1c-90.7,0 -166.1,-43.4 -181.4,-100.5c-0.4,-1.6 -0.8,-3.2 -1.1,-4.8c-0.4,-3 -0.3,-6 0.3,-9c3.7,-16.8 24.1,-26.5 45.6,-21.7c14.1,3.1 25.1,11.8 30,22.1c0.5,2.2 1.3,4.4 2.2,6.5c5.2,12 15.6,21 22.6,26c20.9,15 50.8,23.6 81.8,23.6c31.1,0 60.9,-8.6 81.8,-23.6c7.1,-5.1 17.6,-14.2 22.7,-26.2c0.8,-1.9 1.5,-4 2,-6c4.8,-10.4 15.9,-19.1 30.1,-22.3c21.5,-4.8 41.9,5 45.6,21.7c0.7,2.6 0.8,5.4 0.5,8.2z" class="st6" id="XMLID_56_"/>
  <ellipse fill="#9B2121" ry="30.6" rx="90.1" cy="617.8" cx="492.2" class="st10" id="XMLID_75_"/>
  <ellipse stroke-miterlimit="10" stroke-linejoin="round" stroke-linecap="round" stroke-width="4" stroke="#000000" fill="none" ry="30.6" rx="90.1" cy="617.8" cx="492.2" class="st6" id="XMLID_31_"/>
  <g id="XMLID_89_">
   <path fill="#F1534D" d="m594.8,551l-207.6,0c-15.9,0 -28.2,-13.9 -26.2,-29.7l9.2,-73.5c2.6,-21 20.4,-36.7 41.6,-36.7l158.6,0c21.1,0 38.9,15.7 41.6,36.7l9.2,73.5c1.8,15.8 -10.5,29.7 -26.4,29.7z" class="st11" id="XMLID_69_"/>
   <path stroke-miterlimit="10" stroke-linejoin="round" stroke-linecap="round" stroke-width="4" stroke="#000000" fill="none" d="m594.8,551l-207.6,0c-15.9,0 -28.2,-13.9 -26.2,-29.7l9.2,-73.5c2.6,-21 20.4,-36.7 41.6,-36.7l158.6,0c21.1,0 38.9,15.7 41.6,36.7l9.2,73.5c1.8,15.8 -10.5,29.7 -26.4,29.7z" class="st6" id="XMLID_24_"/>
   <path stroke-miterlimit="10" stroke-linejoin="round" stroke-linecap="round" stroke-width="4" stroke="#000000" fill="none" d="m415,473.2" class="st6" id="XMLID_90_"/>
   <g id="XMLID_1191_">
    <line stroke-miterlimit="10" stroke-linejoin="round" stroke-linecap="round" stroke-width="4" stroke="#000000" fill="none" y2="498.3" x2="407.7" y1="473.2" x1="409.7" class="st6" id="XMLID_1189_"/>
    <line stroke-miterlimit="10" stroke-linejoin="round" stroke-linecap="round" stroke-width="4" stroke="#000000" fill="none" y2="498.3" x2="575.8" y1="473.2" x1="573.8" class="st6" id="XMLID_1192_"/>
   </g>
  </g>
  <g id="XMLID_1194_">
   <path fill="#F1534D" d="m594.8,551l-207.6,0c-15.9,0 -28.2,-13.9 -26.2,-29.7l9.2,-73.5c2.6,-21 20.4,-36.7 41.6,-36.7l158.6,0c21.1,0 38.9,15.7 41.6,36.7l9.2,73.5c1.8,15.8 -10.5,29.7 -26.4,29.7z" class="st11" id="XMLID_1202_"/>
   <g opacity="0.24" class="st12" id="XMLID_4_">
    <path fill="#9B2121" d="m370.1,455.6c2.6,-21 20.4,-36.7 41.6,-36.7l158.6,0c21.1,0 38.9,15.7 41.6,36.7l9.1,72.9c0.3,-2.3 0.4,-4.7 0.1,-7.2l-9.2,-73.5c-2.6,-21 -20.4,-36.7 -41.6,-36.7l-158.6,0c-21.1,0 -38.9,15.7 -41.6,36.7l-9.2,73.5c-0.3,2.4 -0.3,4.8 0.1,7.2l9.1,-72.9z" class="st10" id="XMLID_1208_"/>
    <path fill="#9B2121" d="m420.9,418.9c0,0 12.3,2.2 13.3,9c0.8,5.5 0.7,9.1 2.8,11.3s7,6.7 16.9,6.7c-5.5,-5.5 -5.6,-24.8 -7.1,-24.8c-1.4,0 -5,-9.6 -5,-9.6l-4.8,-2.2c0.1,0 -17.6,2.2 -16.1,9.6z" class="st10" id="XMLID_8_"/>
    <path fill="#9B2121" d="m552.3,418.9c0,0 -12.3,2.2 -13.3,9c-0.8,5.5 -0.7,9.1 -2.8,11.3c-2.1,2.1 -7,6.7 -16.9,6.7c5.5,-5.5 5.6,-24.8 7.1,-24.8c1.4,0 5,-9.6 5,-9.6l4.8,-2.2c-0.1,0 17.6,2.2 16.1,9.6z" class="st10" id="XMLID_10_"/>
   </g>
   <path stroke-miterlimit="10" stroke-linejoin="round" stroke-linecap="round" stroke-width="4" stroke="#000000" fill="none" d="m594.8,551l-207.6,0c-15.9,0 -28.2,-13.9 -26.2,-29.7l9.2,-73.5c2.6,-21 20.4,-36.7 41.6,-36.7l158.6,0c21.1,0 38.9,15.7 41.6,36.7l9.2,73.5c1.8,15.8 -10.5,29.7 -26.4,29.7z" class="st6" id="XMLID_1201_"/>
   <path stroke-miterlimit="10" stroke-linejoin="round" stroke-linecap="round" stroke-width="4" stroke="#000000" fill="none" d="m415,473.2" class="st6" id="XMLID_1200_"/>
   <g id="XMLID_1195_">
    <line stroke-miterlimit="10" stroke-linejoin="round" stroke-linecap="round" stroke-width="4" stroke="#000000" fill="none" y2="498.3" x2="407.7" y1="473.2" x1="409.7" class="st6" id="XMLID_1199_"/>
    <line stroke-miterlimit="10" stroke-linejoin="round" stroke-linecap="round" stroke-width="4" stroke="#000000" fill="none" y2="498.3" x2="575.8" y1="473.2" x1="573.8" class="st6" id="XMLID_1196_"/>
   </g>
  </g>
  <g id="XMLID_78_">
   <path fill="#9B2121" d="m464.3,369.3l-32.9,-1.7l-15.4,1.7c0,0 -10.3,7.7 -10.3,9.8c0,2.1 1,19.2 1,19.2s24.3,3.3 26.9,5.8s18,16.9 18,16.9l14.9,-5.8l7.8,-20.8l-10,-25.1z" class="st10" id="XMLID_80_"/>
   <path fill="#F1534D" d="m458.5,356.6l-38,0c-15.3,0 -27.8,12.4 -27.8,27.8l0,0c0,15.3 12.4,27.8 27.8,27.8l5,0c8.1,0 14.6,6.5 14.6,14.6l0,1.5c0,9.7 7.9,17.6 17.6,17.6l0,0c0,0 0,-18 0,-18c0.2,0 0.4,0.2 0.4,0.4l0,-1.5c0,-18 -14.6,-32.6 -32.6,-32.6l-5,0c-5.4,0 -9.8,-4.4 -9.8,-9.8s4.4,-9.8 9.8,-9.8l38,0l0,-18z" class="st11" id="XMLID_72_"/>
   <path stroke-miterlimit="10" stroke-linejoin="round" stroke-linecap="round" stroke-width="4" stroke="#000000" fill="none" d="m456.2,415.5c-4.6,-12.4 -16.6,-21.4 -30.6,-21.4l-5,0c-5.4,0 -9.8,-4.4 -9.8,-9.8s4.4,-9.8 9.8,-9.8l38,0l0,-18l-38,0c-15.3,0 -27.8,12.4 -27.8,27.8l0,0c0,15.3 12.4,27.8 27.8,27.8l5,0c8.1,0 14.6,6.5 14.6,14.6l0,1.5c0,9.7 7.9,17.6 17.6,17.6" class="st6" id="XMLID_81_"/>
  </g>
  <g id="XMLID_28_">
   <path fill="#9B2121" d="m507.8,369.3l32.9,-1.7l15.4,1.7c0,0 10.3,7.7 10.3,9.8c0,2.1 -1,19.2 -1,19.2s-24.3,3.3 -26.9,5.8c-2.6,2.6 -18,16.9 -18,16.9l-14.9,-5.8l-7.8,-20.8l10,-25.1z" class="st10" id="XMLID_82_"/>
   <path fill="#F1534D" d="m513.6,356.6l38,0c15.3,0 27.8,12.4 27.8,27.8l0,0c0,15.3 -12.4,27.8 -27.8,27.8l-5,0c-8.1,0 -14.6,6.5 -14.6,14.6l0,1.5c0,9.7 -7.9,17.6 -17.6,17.6l0,0c0,0 0,-18 0,-18c-0.2,0 -0.4,0.2 -0.4,0.4l0,-1.5c0,-18 14.6,-32.6 32.6,-32.6l5,0c5.4,0 9.8,-4.4 9.8,-9.8s-4.4,-9.8 -9.8,-9.8l-38,0l0,-18z" class="st11" id="XMLID_79_"/>
   <path stroke-miterlimit="10" stroke-linejoin="round" stroke-linecap="round" stroke-width="4" stroke="#000000" fill="none" d="m516,415.5c4.6,-12.4 16.6,-21.4 30.6,-21.4l5,0c5.4,0 9.8,-4.4 9.8,-9.8s-4.4,-9.8 -9.8,-9.8l-38,0l0,-18l38,0c15.3,0 27.8,12.4 27.8,27.8l0,0c0,15.3 -12.4,27.8 -27.8,27.8l-5,0c-8.1,0 -14.6,6.5 -14.6,14.6l0,1.5c0,9.7 -7.9,17.6 -17.6,17.6" class="st6" id="XMLID_71_"/>
  </g>
  <circle fill="#F46262" r="39" cy="392.7" cx="487.9" class="st13" id="XMLID_74_"/>
  <path fill="#F1534D" d="m450.6,381.2c10.8,6.9 23.6,11 37.3,11c13.7,0 26.5,-4 37.3,-11c-4.9,-16 -19.7,-27.6 -37.3,-27.6c-17.5,0.1 -32.4,11.7 -37.3,27.6z" class="st11" id="XMLID_2426_"/>
  <circle stroke-miterlimit="10" stroke-linejoin="round" stroke-linecap="round" stroke-width="4" stroke="#000000" fill="none" r="39" cy="392.7" cx="487.9" class="st6" id="XMLID_23_"/>
  <path fill="#FFC897" d="m487.9,415.3l0,0c-12.7,0 -23,-10.3 -23,-23l0,-17.2c0,-3.2 2.6,-5.8 5.8,-5.8l34.5,0c3.2,0 5.8,2.6 5.8,5.8l0,17.2c-0.1,12.7 -10.4,23 -23.1,23z" class="st14" id="XMLID_70_"/>
  <path fill="#E5A973" d="m505.2,369.3l-34.5,0c-3.2,0 -5.8,2.8 -5.8,6.2l0,14.1c7.2,2.7 14.9,4.2 23,4.2c8.1,0 15.8,-1.5 23,-4.2l0,-14.1c0,-3.4 -2.6,-6.2 -5.7,-6.2z" class="st15" id="XMLID_2425_"/>
  <path stroke-miterlimit="10" stroke-linejoin="round" stroke-linecap="round" stroke-width="4" stroke="#000000" fill="none" d="m487.9,415.3l0,0c-12.7,0 -23,-10.3 -23,-23l0,-17.2c0,-3.2 2.6,-5.8 5.8,-5.8l34.5,0c3.2,0 5.8,2.6 5.8,5.8l0,17.2c-0.1,12.7 -10.4,23 -23.1,23z" class="st6" id="XMLID_15_"/>
  <path stroke-miterlimit="10" stroke-linejoin="round" stroke-linecap="round" stroke-width="4" stroke="#000000" fill="none" d="m465.7,404.2" class="st6" id="XMLID_25_"/>
  <rect fill="#607691" height="68.3" width="21.4" class="st16" y="674.4" x="491.4" id="XMLID_30_"/>
  <rect stroke-miterlimit="10" stroke-linejoin="round" stroke-linecap="round" stroke-width="4" stroke="#000000" fill="none" height="68.3" width="21.4" class="st6" y="674.4" x="491.4" id="XMLID_33_"/>
  <path stroke-miterlimit="10" stroke-linejoin="round" stroke-linecap="round" stroke-width="4" stroke="#000000" fill="none" d="m386.5,629.2c-0.9,-2.1 -1.6,-4.2 -2.2,-6.5c1.1,2.2 1.8,4.3 2.2,6.5z" class="st6" id="XMLID_54_"/>
  <path stroke-miterlimit="10" stroke-linejoin="round" stroke-linecap="round" stroke-width="4" stroke="#000000" fill="none" d="m595.6,629c0.4,-2.1 1.1,-4.1 2,-6c-0.5,2.1 -1.2,4.1 -2,6z" class="st6" id="XMLID_51_"/>
  <g id="XMLID_88_">
   <path fill="#B5B5B5" d="m595.3,624.2l-208.5,0c-7.4,0 -13.7,-5.5 -14.7,-12.9l-13,-101.8c-1.1,-8.8 5.8,-16.7 14.7,-16.7l234.5,0c8.9,0 15.8,7.8 14.7,16.7l-13,101.8c-1,7.3 -7.3,12.9 -14.7,12.9z" class="st17" id="XMLID_73_"/>
   <path fill="#7E7E7E" opacity="0.21" d="m609.9,604.9c-0.9,7.4 -7.2,12.9 -14.7,12.9l-208.4,0c-7.4,0 -13.7,-5.5 -14.7,-12.9l-12.8,-100.3c-0.3,1.6 -0.4,3.2 -0.2,4.9l13,101.8c0.9,7.4 7.2,12.9 14.7,12.9l208.5,0c7.4,0 13.7,-5.5 14.7,-12.9l13,-101.8c0.2,-1.7 0.1,-3.3 -0.2,-4.9l-12.9,100.3z" class="st18" id="XMLID_1188_"/>
   <path fill="#7E7E7E" opacity="0.21" d="m359.2,510.4c1.2,-6.8 7.2,-12.2 14.5,-12.2l234.5,0c7.4,0 13.3,5.3 14.5,12.2l0.1,-1c1.1,-8.8 -5.8,-16.7 -14.7,-16.7l-234.3,0c-8.9,0 -15.8,7.8 -14.7,16.7l0.1,1z" class="st18" id="XMLID_91_"/>
   <path stroke-miterlimit="10" stroke-linejoin="round" stroke-linecap="round" stroke-width="4" stroke="#000000" fill="none" d="m595.3,624.2l-208.5,0c-7.4,0 -13.7,-5.5 -14.7,-12.9l-13,-101.8c-1.1,-8.8 5.8,-16.7 14.7,-16.7l234.5,0c8.9,0 15.8,7.8 14.7,16.7l-13,101.8c-1,7.3 -7.3,12.9 -14.7,12.9z" class="st6" id="XMLID_29_"/>
   <path fill="#B5B5B5" opacity="0.66" d="m500.9,552.3c-4.5,0 -8.1,-3.6 -8.1,-8.1c0,-0.3 0,-0.6 0.1,-0.9c-0.8,-0.1 -1.6,-0.2 -2.4,-0.2c-7.3,0 -13.3,6 -13.3,13.3s6,13.3 13.3,13.3s13.3,-6 13.3,-13.3c0,-1.5 -0.3,-3 -0.7,-4.4c-0.7,0.1 -1.4,0.3 -2.2,0.3z" class="st19" id="XMLID_1190_"/>
  </g>
  <g id="XMLID_39_">
   <path stroke-miterlimit="10" stroke-linejoin="round" stroke-linecap="round" stroke-width="4" stroke="#000000" fill="#282323" d="m604.1,713.2c-3.3,-10.7 -13.4,-16.4 -29.8,-21.2c-10.4,-3 -23.6,-4.4 -44.3,-8.6c-10.1,-2 -17.2,-6 -17.2,-6l0,11.5c0,0 68.5,13.5 79.2,31.2c5.2,8.7 3.6,30 -20.9,32.2c7.5,1.1 19.8,-0.8 26.4,-7.5c8.2,-8.3 10.4,-19.4 6.6,-31.6z" class="st3" id="XMLID_36_"/>
   <path fill="#442C2A" d="m512.8,688.9c0,0 41,7.6 62.9,17c19.2,8.3 18.6,16.9 19.1,25.7c0.3,5.1 -3.3,17.7 -17.9,19.9c-17.4,2.6 -37.9,-0.2 -64.1,-16.9c0,-40.9 0,-45.7 0,-45.7z" class="st4" id="XMLID_52_"/>
   <path fill="#442C2A" opacity="0.37" d="m594.8,731.6c-0.4,-7.1 -0.1,-14.1 -10.1,-20.9c0.4,2.5 0.5,4.9 0.6,7.4c0.3,5.1 -3.3,17.7 -17.9,19.9c-15.2,2.3 -32.9,0.4 -54.6,-11.3c0,2.5 0,5.1 0,7.8c26.2,16.7 46.7,19.4 64.1,16.9c14.7,-2.1 18.2,-14.8 17.9,-19.8z" class="st5" id="XMLID_1212_"/>
   <path stroke-miterlimit="10" stroke-linejoin="round" stroke-linecap="round" stroke-width="4" stroke="#000000" fill="none" d="m512.8,688.9c0,0 41,7.6 62.9,17c19.2,8.3 18.6,16.9 19.1,25.7c0.3,5.1 -3.3,17.7 -17.9,19.9c-17.4,2.6 -37.9,-0.2 -64.1,-16.9c0,-40.9 0,-45.7 0,-45.7z" class="st6" id="XMLID_34_"/>
   <path stroke-miterlimit="10" stroke-linejoin="round" stroke-linecap="round" stroke-width="4" stroke="#000000" fill="none" d="m550.8,712.4c3.3,1.8 2.5,19.3 -5.5,21.7" class="st6" id="XMLID_37_"/>
   <path stroke-miterlimit="10" stroke-linejoin="round" stroke-linecap="round" stroke-width="4" stroke="#000000" fill="none" d="m538.3,711.1c3.4,4.8 1,16.1 -5.1,18.9" class="st6" id="XMLID_38_"/>
   <path stroke-miterlimit="10" stroke-linejoin="round" stroke-linecap="round" stroke-width="4" stroke="#000000" fill="none" d="m526.8,707.1c3.4,4.8 1,16.1 -5.1,18.9" class="st6" id="XMLID_40_"/>
  </g>
  <line stroke-miterlimit="10" stroke-linejoin="round" stroke-linecap="round" stroke-width="6" stroke="#000000" fill="none" y2="488.9" x2="452.8" y1="435.7" x1="452.8" class="st20" id="XMLID_83_"/>
  <line stroke-miterlimit="10" stroke-linejoin="round" stroke-linecap="round" stroke-width="6" stroke="#000000" fill="none" y2="473.2" x2="520.3" y1="435.7" x1="520.3" class="st20" id="XMLID_84_"/>
  <circle r="8.3" cy="476.2" cx="520.3" id="XMLID_27_"/>
  <circle fill="#7E7E7E" r="3.4" cy="475.2" cx="520.3" class="st21" id="XMLID_86_"/>
  <g id="XMLID_41_">
   <path fill="#FFC897" d="m487.9,386.2l0,0c-34.8,0 -63.1,-28.2 -63.1,-63.1l0,-73.2l126.2,0l0,73.2c0,34.8 -28.2,63.1 -63.1,63.1z" class="st14" id="XMLID_5_"/>
   <path fill="#E5A973" d="m487.9,377.5l0,0c-34.8,0 -63.1,-28.2 -63.1,-63.1l0,8.7c0,34.8 28.2,63.1 63.1,63.1l0,0c34.8,0 63.1,-28.2 63.1,-63.1l0,-8.7c0,34.8 -28.2,63.1 -63.1,63.1z" class="st15" id="XMLID_1198_"/>
   <path stroke-miterlimit="10" stroke-linejoin="round" stroke-linecap="round" stroke-width="4" stroke="#000000" fill="none" d="m487.9,386.2l0,0c-34.8,0 -63.1,-28.2 -63.1,-63.1l0,-73.2l126.2,0l0,73.2c0,34.8 -28.2,63.1 -63.1,63.1z" class="st6" id="XMLID_2424_"/>
   <path fill="#E5A973" d="m551.5,257.2c-0.2,-3.4 -0.4,-6.9 -0.5,-10.3c-42,2 -84.2,1.7 -126.1,-2c-0.3,3.9 -0.5,7.8 -0.8,11.7c1.9,1.7 3.9,3.5 5.8,5.2c1.6,0.8 3.7,1.9 5.6,2.9c8.4,4.4 20.1,10 31.3,12.2c4.1,0.8 8.4,1.2 12.8,1.1c18.9,-0.2 34.8,-7.7 41.5,-10.8c1,-0.5 1.8,-0.9 2.3,-1c0.4,-0.2 0.8,-0.3 1.4,-0.3c1.2,0 2.6,0.3 4.3,0.6c2.2,0.5 4.8,1 7.7,0.8c3.3,-0.2 6.3,-1.2 9.2,-3.1c1.7,-2.4 3.6,-4.7 5.5,-7z" class="st15" id="XMLID_1197_"/>
   <path fill="#231A17" d="m521.1,219.2c0,0 -50.5,-33.3 -92.3,3.9c-7.8,6.9 -10.9,16.8 -10.9,25.9l0,48.2l7,0l0,-35c0,-2.6 1.8,-4.6 4,-4.6l0,0c3.6,0 23.1,10.4 39.6,13.3c24.9,4.3 47.6,-7.2 52.5,-8.9c8.4,-3 15.2,7.4 25.8,-4.3l0.4,0c2.2,0 4,2.1 4,4.6l0,35l7,0l0,-48c-0.2,-11.8 -13.8,-41.4 -37.1,-30.1z" class="st22" id="XMLID_68_"/>
   <g opacity="0.34" class="st23" id="XMLID_2783_">
    <rect fill="#231A17" height="6.6" width="7" class="st22" y="290.6" x="417.8" id="XMLID_2784_"/>
    <rect fill="#231A17" height="6.6" width="7" class="st22" y="290.6" x="551" id="XMLID_2785_"/>
   </g>
   <path stroke-miterlimit="10" stroke-linejoin="round" stroke-linecap="round" stroke-width="4" stroke="#000000" fill="none" d="m521.1,219.2c0,0 -50.5,-33.3 -92.3,3.9c-7.8,6.9 -10.9,16.8 -10.9,25.9l0,48.2l7,0l0,-35c0,-2.6 1.8,-4.6 4,-4.6l0,0c3.6,0 23.1,10.4 39.6,13.3c24.9,4.3 47.6,-7.2 52.5,-8.9c8.4,-3 15.2,7.4 25.8,-4.3l0.4,0c2.2,0 4,2.1 4,4.6l0,35l7,0l0,-48c-0.2,-11.8 -13.8,-41.4 -37.1,-30.1z" class="st6" id="XMLID_3_"/>
   <path stroke-miterlimit="10" stroke-linejoin="round" stroke-linecap="round" stroke-width="4" stroke="#000000" fill="none" d="m478.4,251.7c0,0 -54.2,3.5 -65.7,-25.3" class="st6" id="XMLID_6_"/>
   <path stroke-miterlimit="10" stroke-linejoin="round" stroke-linecap="round" stroke-width="4" stroke="#000000" fill="none" d="m486.1,244.8c0,0 -52.2,-3.3 -65.8,-32.1" class="st6" id="XMLID_9_"/>
   <path fill="#FFC897" d="m551,289.4l0,32.8c7,0 12.6,-7.3 12.6,-16.4l0,0c0,-9.1 -5.6,-16.4 -12.6,-16.4z" class="st14" id="XMLID_85_"/>
   <path fill="#E5A973" d="m551,291.2l0,29.1c4.1,-2.7 6.9,-8.2 6.9,-14.6l0,0c0,-6.3 -2.8,-11.8 -6.9,-14.5z" class="st15" id="XMLID_1205_"/>
   <path stroke-miterlimit="10" stroke-linejoin="round" stroke-linecap="round" stroke-width="4" stroke="#000000" fill="none" d="m551,289.4l0,32.8c7,0 12.6,-7.3 12.6,-16.4l0,0c0,-9.1 -5.6,-16.4 -12.6,-16.4z" class="st6" id="XMLID_12_"/>
   <path fill="#FFC897" d="m424.9,289.4l0,32.8c-7,0 -12.6,-7.3 -12.6,-16.4l0,0c-0.1,-9.1 5.6,-16.4 12.6,-16.4z" class="st14" id="XMLID_87_"/>
   <path fill="#E5A973" d="m424.9,291.8c-3.6,2.9 -6.1,8.1 -6.1,14l0,0c0,5.9 2.4,11.1 6.1,14l0,-28z" class="st15" id="XMLID_1203_"/>
   <path stroke-miterlimit="10" stroke-linejoin="round" stroke-linecap="round" stroke-width="4" stroke="#000000" fill="none" d="m424.9,289.4l0,32.8c-7,0 -12.6,-7.3 -12.6,-16.4l0,0c-0.1,-9.1 5.6,-16.4 12.6,-16.4z" class="st6" id="XMLID_11_"/>
   <path stroke-miterlimit="10" stroke-linejoin="round" stroke-linecap="round" stroke-width="4" stroke="#000000" fill="none" d="m485.3,316.1l-4.2,13.7c0,1.5 4.9,0.3 9.9,1.5" class="st6" id="XMLID_7_"/>
   <path stroke-miterlimit="10" stroke-linejoin="round" stroke-linecap="round" stroke-width="3" stroke="#000000" fill="none" d="m508.9,341.7c1.5,10.4 -11.9,19.6 -22.4,17.7" class="st24" id="XMLID_16_"/>
   <g id="XMLID_19_">
    <ellipse stroke-miterlimit="10" stroke-linejoin="round" stroke-linecap="round" stroke-width="2" stroke="#000000" fill="none" ry="4.5" rx="4.2" cy="300" cx="465.2" class="st25" id="XMLID_14_"/>
    <ellipse ry="4.5" rx="4.2" cy="300" cx="465.2" id="XMLID_20_"/>
    <path stroke-miterlimit="10" stroke-linejoin="round" stroke-linecap="round" stroke-width="3" stroke="#000000" fill="none" d="m450.7,290.5c2.1,-2.5 7,-4.2 12.8,-4.2c4.6,0 8.6,1.1 11.1,2.8" class="st24" id="XMLID_17_"/>
   </g>
   <g id="XMLID_13_">
    <ellipse stroke-miterlimit="10" stroke-linejoin="round" stroke-linecap="round" stroke-width="2" stroke="#000000" fill="none" ry="4.5" rx="4.2" cy="300" cx="511.2" class="st25" id="XMLID_22_"/>
    <ellipse ry="4.5" rx="4.2" cy="300" cx="511.2" id="XMLID_21_"/>
    <path stroke-miterlimit="10" stroke-linejoin="round" stroke-linecap="round" stroke-width="3" stroke="#000000" fill="none" d="m525.7,290.5c-2.1,-2.5 -7,-4.2 -12.8,-4.2c-4.6,0 -8.6,1.1 -11.1,2.8" class="st24" id="XMLID_18_"/>
   </g>
  </g>
 </g>
</svg>