<svg width="1000" height="1000" xmlns="http://www.w3.org/2000/svg" xml:space="preserve" version="1.1">

 <g>
  <title>Layer 1</title>
  <g opacity="0.2" class="st1" id="XMLID_126_">
   <rect stroke-miterlimit="10" stroke-linejoin="round" stroke-linecap="round" stroke-width="6" stroke="#153144" fill="none" height="288" width="0" class="st2" transform="matrix(-1 -1.224647e-16 1.224647e-16 -1 1306.9482 1112.6478)" y="412.3" x="653.5" id="XMLID_125_"/>
   <rect stroke-miterlimit="10" stroke-linejoin="round" stroke-linecap="round" stroke-width="6" stroke="#153144" fill="none" height="380.9" width="112" class="st2" y="319.4" x="395.7" id="XMLID_124_"/>
   <g id="XMLID_121_">
    <g id="svg_1">
     <g id="svg_2">
      <line stroke-miterlimit="10" stroke-linejoin="round" stroke-linecap="round" stroke-width="6" stroke="#153144" fill="none" y2="617.3" x2="488.1" y1="617.3" x1="415.1" class="st2" id="XMLID_256_"/>
      <line stroke-miterlimit="10" stroke-linejoin="round" stroke-linecap="round" stroke-width="6" stroke="#153144" fill="none" y2="629.3" x2="488.1" y1="629.3" x1="415.1" class="st2" id="XMLID_255_"/>
     </g>
    </g>
    <g id="svg_3">
     <g id="svg_4">
      <line stroke-miterlimit="10" stroke-linejoin="round" stroke-linecap="round" stroke-width="6" stroke="#153144" fill="none" y2="583.3" x2="488.1" y1="583.3" x1="415.1" class="st2" id="XMLID_250_"/>
      <line stroke-miterlimit="10" stroke-linejoin="round" stroke-linecap="round" stroke-width="6" stroke="#153144" fill="none" y2="595.3" x2="488.1" y1="595.3" x1="415.1" class="st2" id="XMLID_249_"/>
     </g>
    </g>
    <g id="svg_5">
     <g id="svg_6">
      <line stroke-miterlimit="10" stroke-linejoin="round" stroke-linecap="round" stroke-width="6" stroke="#153144" fill="none" y2="549.3" x2="488.1" y1="549.3" x1="415.1" class="st2" id="XMLID_244_"/>
      <line stroke-miterlimit="10" stroke-linejoin="round" stroke-linecap="round" stroke-width="6" stroke="#153144" fill="none" y2="561.3" x2="488.1" y1="561.3" x1="415.1" class="st2" id="XMLID_243_"/>
     </g>
    </g>
    <g id="svg_7">
     <g id="svg_8">
      <line stroke-miterlimit="10" stroke-linejoin="round" stroke-linecap="round" stroke-width="6" stroke="#153144" fill="none" y2="515.3" x2="488.1" y1="515.3" x1="415.1" class="st2" id="XMLID_221_"/>
      <line stroke-miterlimit="10" stroke-linejoin="round" stroke-linecap="round" stroke-width="6" stroke="#153144" fill="none" y2="527.3" x2="488.1" y1="527.3" x1="415.1" class="st2" id="XMLID_220_"/>
     </g>
    </g>
    <g id="svg_9">
     <g id="svg_10">
      <line stroke-miterlimit="10" stroke-linejoin="round" stroke-linecap="round" stroke-width="6" stroke="#153144" fill="none" y2="481.3" x2="488.1" y1="481.3" x1="415.1" class="st2" id="XMLID_215_"/>
      <line stroke-miterlimit="10" stroke-linejoin="round" stroke-linecap="round" stroke-width="6" stroke="#153144" fill="none" y2="493.3" x2="488.1" y1="493.3" x1="415.1" class="st2" id="XMLID_214_"/>
     </g>
    </g>
    <g id="svg_11">
     <g id="svg_12">
      <line stroke-miterlimit="10" stroke-linejoin="round" stroke-linecap="round" stroke-width="6" stroke="#153144" fill="none" y2="447.3" x2="488.1" y1="447.3" x1="415.1" class="st2" id="XMLID_209_"/>
      <line stroke-miterlimit="10" stroke-linejoin="round" stroke-linecap="round" stroke-width="6" stroke="#153144" fill="none" y2="459.3" x2="488.1" y1="459.3" x1="415.1" class="st2" id="XMLID_208_"/>
     </g>
    </g>
    <g id="svg_13">
     <g id="svg_14">
      <line stroke-miterlimit="10" stroke-linejoin="round" stroke-linecap="round" stroke-width="6" stroke="#153144" fill="none" y2="413.3" x2="488.1" y1="413.3" x1="415.1" class="st2" id="XMLID_200_"/>
      <line stroke-miterlimit="10" stroke-linejoin="round" stroke-linecap="round" stroke-width="6" stroke="#153144" fill="none" y2="425.3" x2="488.1" y1="425.3" x1="415.1" class="st2" id="XMLID_198_"/>
     </g>
    </g>
    <g id="svg_15">
     <g id="svg_16">
      <line stroke-miterlimit="10" stroke-linejoin="round" stroke-linecap="round" stroke-width="6" stroke="#153144" fill="none" y2="379.3" x2="488.1" y1="379.3" x1="415.1" class="st2" id="XMLID_193_"/>
      <line stroke-miterlimit="10" stroke-linejoin="round" stroke-linecap="round" stroke-width="6" stroke="#153144" fill="none" y2="391.3" x2="488.1" y1="391.3" x1="415.1" class="st2" id="XMLID_192_"/>
     </g>
    </g>
    <g id="svg_17">
     <g id="svg_18">
      <line stroke-miterlimit="10" stroke-linejoin="round" stroke-linecap="round" stroke-width="6" stroke="#153144" fill="none" y2="345.3" x2="488.1" y1="345.3" x1="415.1" class="st2" id="XMLID_187_"/>
      <line stroke-miterlimit="10" stroke-linejoin="round" stroke-linecap="round" stroke-width="6" stroke="#153144" fill="none" y2="357.3" x2="488.1" y1="357.3" x1="415.1" class="st2" id="XMLID_186_"/>
     </g>
    </g>
   </g>
   <path stroke-miterlimit="10" stroke-linejoin="round" stroke-linecap="round" stroke-width="6" stroke="#153144" fill="none" d="m488.7,319.4l-74,0l0,-43c0,-20.4 16.6,-37 37,-37l0,0c20.4,0 37,16.6 37,37l0,43z" class="st2" id="XMLID_120_"/>
   <rect stroke-miterlimit="10" stroke-linejoin="round" stroke-linecap="round" stroke-width="6" stroke="#153144" fill="none" height="20" width="145.8" class="st2" y="392.3" x="507.7" id="XMLID_119_"/>
   <g id="XMLID_106_">
    <g id="svg_19">
     <g id="svg_20">
      <g id="XMLID_675_">
       <line stroke-miterlimit="10" stroke-linejoin="round" stroke-linecap="round" stroke-width="6" stroke="#153144" fill="none" y2="659.3" x2="631.1" y1="644.3" x1="631.1" class="st2" id="XMLID_676_"/>
      </g>
      <g id="XMLID_673_">
       <line stroke-miterlimit="10" stroke-linejoin="round" stroke-linecap="round" stroke-width="6" stroke="#153144" fill="none" y2="659.3" x2="611.1" y1="644.3" x1="611.1" class="st2" id="XMLID_674_"/>
      </g>
      <g id="XMLID_671_">
       <line stroke-miterlimit="10" stroke-linejoin="round" stroke-linecap="round" stroke-width="6" stroke="#153144" fill="none" y2="659.3" x2="591.1" y1="644.3" x1="591.1" class="st2" id="XMLID_672_"/>
      </g>
      <g id="XMLID_669_">
       <line stroke-miterlimit="10" stroke-linejoin="round" stroke-linecap="round" stroke-width="6" stroke="#153144" fill="none" y2="659.3" x2="571.1" y1="644.3" x1="571.1" class="st2" id="XMLID_670_"/>
      </g>
      <g id="XMLID_667_">
       <line stroke-miterlimit="10" stroke-linejoin="round" stroke-linecap="round" stroke-width="6" stroke="#153144" fill="none" y2="659.3" x2="551.1" y1="644.3" x1="551.1" class="st2" id="XMLID_668_"/>
      </g>
      <g id="XMLID_665_">
       <line stroke-miterlimit="10" stroke-linejoin="round" stroke-linecap="round" stroke-width="6" stroke="#153144" fill="none" y2="659.3" x2="531.1" y1="644.3" x1="531.1" class="st2" id="XMLID_666_"/>
      </g>
     </g>
    </g>
    <g id="svg_21">
     <g id="svg_22">
      <g id="XMLID_639_">
       <line stroke-miterlimit="10" stroke-linejoin="round" stroke-linecap="round" stroke-width="6" stroke="#153144" fill="none" y2="619.3" x2="631.1" y1="604.3" x1="631.1" class="st2" id="XMLID_640_"/>
      </g>
      <g id="XMLID_637_">
       <line stroke-miterlimit="10" stroke-linejoin="round" stroke-linecap="round" stroke-width="6" stroke="#153144" fill="none" y2="619.3" x2="611.1" y1="604.3" x1="611.1" class="st2" id="XMLID_638_"/>
      </g>
      <g id="XMLID_635_">
       <line stroke-miterlimit="10" stroke-linejoin="round" stroke-linecap="round" stroke-width="6" stroke="#153144" fill="none" y2="619.3" x2="591.1" y1="604.3" x1="591.1" class="st2" id="XMLID_636_"/>
      </g>
      <g id="XMLID_633_">
       <line stroke-miterlimit="10" stroke-linejoin="round" stroke-linecap="round" stroke-width="6" stroke="#153144" fill="none" y2="619.3" x2="571.1" y1="604.3" x1="571.1" class="st2" id="XMLID_634_"/>
      </g>
      <g id="XMLID_631_">
       <line stroke-miterlimit="10" stroke-linejoin="round" stroke-linecap="round" stroke-width="6" stroke="#153144" fill="none" y2="619.3" x2="551.1" y1="604.3" x1="551.1" class="st2" id="XMLID_632_"/>
      </g>
      <g id="XMLID_629_">
       <line stroke-miterlimit="10" stroke-linejoin="round" stroke-linecap="round" stroke-width="6" stroke="#153144" fill="none" y2="619.3" x2="531.1" y1="604.3" x1="531.1" class="st2" id="XMLID_630_"/>
      </g>
     </g>
    </g>
    <g id="svg_23">
     <g id="svg_24">
      <g id="XMLID_603_">
       <line stroke-miterlimit="10" stroke-linejoin="round" stroke-linecap="round" stroke-width="6" stroke="#153144" fill="none" y2="579.3" x2="631.1" y1="564.3" x1="631.1" class="st2" id="XMLID_604_"/>
      </g>
      <g id="XMLID_601_">
       <line stroke-miterlimit="10" stroke-linejoin="round" stroke-linecap="round" stroke-width="6" stroke="#153144" fill="none" y2="579.3" x2="611.1" y1="564.3" x1="611.1" class="st2" id="XMLID_602_"/>
      </g>
      <g id="XMLID_599_">
       <line stroke-miterlimit="10" stroke-linejoin="round" stroke-linecap="round" stroke-width="6" stroke="#153144" fill="none" y2="579.3" x2="591.1" y1="564.3" x1="591.1" class="st2" id="XMLID_600_"/>
      </g>
      <g id="XMLID_597_">
       <line stroke-miterlimit="10" stroke-linejoin="round" stroke-linecap="round" stroke-width="6" stroke="#153144" fill="none" y2="579.3" x2="571.1" y1="564.3" x1="571.1" class="st2" id="XMLID_598_"/>
      </g>
      <g id="XMLID_595_">
       <line stroke-miterlimit="10" stroke-linejoin="round" stroke-linecap="round" stroke-width="6" stroke="#153144" fill="none" y2="579.3" x2="551.1" y1="564.3" x1="551.1" class="st2" id="XMLID_596_"/>
      </g>
      <g id="XMLID_593_">
       <line stroke-miterlimit="10" stroke-linejoin="round" stroke-linecap="round" stroke-width="6" stroke="#153144" fill="none" y2="579.3" x2="531.1" y1="564.3" x1="531.1" class="st2" id="XMLID_594_"/>
      </g>
     </g>
    </g>
    <g id="svg_25">
     <g id="svg_26">
      <g id="XMLID_567_">
       <line stroke-miterlimit="10" stroke-linejoin="round" stroke-linecap="round" stroke-width="6" stroke="#153144" fill="none" y2="539.3" x2="631.1" y1="524.3" x1="631.1" class="st2" id="XMLID_568_"/>
      </g>
      <g id="XMLID_565_">
       <line stroke-miterlimit="10" stroke-linejoin="round" stroke-linecap="round" stroke-width="6" stroke="#153144" fill="none" y2="539.3" x2="611.1" y1="524.3" x1="611.1" class="st2" id="XMLID_566_"/>
      </g>
      <g id="XMLID_563_">
       <line stroke-miterlimit="10" stroke-linejoin="round" stroke-linecap="round" stroke-width="6" stroke="#153144" fill="none" y2="539.3" x2="591.1" y1="524.3" x1="591.1" class="st2" id="XMLID_564_"/>
      </g>
      <g id="XMLID_561_">
       <line stroke-miterlimit="10" stroke-linejoin="round" stroke-linecap="round" stroke-width="6" stroke="#153144" fill="none" y2="539.3" x2="571.1" y1="524.3" x1="571.1" class="st2" id="XMLID_562_"/>
      </g>
      <g id="XMLID_559_">
       <line stroke-miterlimit="10" stroke-linejoin="round" stroke-linecap="round" stroke-width="6" stroke="#153144" fill="none" y2="539.3" x2="551.1" y1="524.3" x1="551.1" class="st2" id="XMLID_560_"/>
      </g>
      <g id="XMLID_557_">
       <line stroke-miterlimit="10" stroke-linejoin="round" stroke-linecap="round" stroke-width="6" stroke="#153144" fill="none" y2="539.3" x2="531.1" y1="524.3" x1="531.1" class="st2" id="XMLID_558_"/>
      </g>
     </g>
    </g>
    <g id="svg_27">
     <g id="svg_28">
      <g id="XMLID_531_">
       <line stroke-miterlimit="10" stroke-linejoin="round" stroke-linecap="round" stroke-width="6" stroke="#153144" fill="none" y2="499.3" x2="631.1" y1="484.3" x1="631.1" class="st2" id="XMLID_532_"/>
      </g>
      <g id="XMLID_529_">
       <line stroke-miterlimit="10" stroke-linejoin="round" stroke-linecap="round" stroke-width="6" stroke="#153144" fill="none" y2="499.3" x2="611.1" y1="484.3" x1="611.1" class="st2" id="XMLID_530_"/>
      </g>
      <g id="XMLID_527_">
       <line stroke-miterlimit="10" stroke-linejoin="round" stroke-linecap="round" stroke-width="6" stroke="#153144" fill="none" y2="499.3" x2="591.1" y1="484.3" x1="591.1" class="st2" id="XMLID_528_"/>
      </g>
      <g id="XMLID_525_">
       <line stroke-miterlimit="10" stroke-linejoin="round" stroke-linecap="round" stroke-width="6" stroke="#153144" fill="none" y2="499.3" x2="571.1" y1="484.3" x1="571.1" class="st2" id="XMLID_526_"/>
      </g>
      <g id="XMLID_523_">
       <line stroke-miterlimit="10" stroke-linejoin="round" stroke-linecap="round" stroke-width="6" stroke="#153144" fill="none" y2="499.3" x2="551.1" y1="484.3" x1="551.1" class="st2" id="XMLID_524_"/>
      </g>
      <g id="XMLID_521_">
       <line stroke-miterlimit="10" stroke-linejoin="round" stroke-linecap="round" stroke-width="6" stroke="#153144" fill="none" y2="499.3" x2="531.1" y1="484.3" x1="531.1" class="st2" id="XMLID_522_"/>
      </g>
     </g>
    </g>
    <g id="svg_29">
     <g id="svg_30">
      <g id="XMLID_495_">
       <line stroke-miterlimit="10" stroke-linejoin="round" stroke-linecap="round" stroke-width="6" stroke="#153144" fill="none" y2="459.3" x2="631.1" y1="444.3" x1="631.1" class="st2" id="XMLID_496_"/>
      </g>
      <g id="XMLID_493_">
       <line stroke-miterlimit="10" stroke-linejoin="round" stroke-linecap="round" stroke-width="6" stroke="#153144" fill="none" y2="459.3" x2="611.1" y1="444.3" x1="611.1" class="st2" id="XMLID_494_"/>
      </g>
      <g id="XMLID_491_">
       <line stroke-miterlimit="10" stroke-linejoin="round" stroke-linecap="round" stroke-width="6" stroke="#153144" fill="none" y2="459.3" x2="591.1" y1="444.3" x1="591.1" class="st2" id="XMLID_492_"/>
      </g>
      <g id="XMLID_489_">
       <line stroke-miterlimit="10" stroke-linejoin="round" stroke-linecap="round" stroke-width="6" stroke="#153144" fill="none" y2="459.3" x2="571.1" y1="444.3" x1="571.1" class="st2" id="XMLID_490_"/>
      </g>
      <g id="XMLID_487_">
       <line stroke-miterlimit="10" stroke-linejoin="round" stroke-linecap="round" stroke-width="6" stroke="#153144" fill="none" y2="459.3" x2="551.1" y1="444.3" x1="551.1" class="st2" id="XMLID_488_"/>
      </g>
      <g id="XMLID_485_">
       <line stroke-miterlimit="10" stroke-linejoin="round" stroke-linecap="round" stroke-width="6" stroke="#153144" fill="none" y2="459.3" x2="531.1" y1="444.3" x1="531.1" class="st2" id="XMLID_486_"/>
      </g>
     </g>
    </g>
   </g>
   <rect stroke-miterlimit="10" stroke-linejoin="round" stroke-linecap="round" stroke-width="6" stroke="#153144" fill="none" height="288" width="60.6" class="st2" y="412.3" x="334" id="XMLID_105_"/>
   <g id="XMLID_3_">
    <g id="svg_31">
     <g id="svg_32">
      <g id="XMLID_433_">
       <line stroke-miterlimit="10" stroke-linejoin="round" stroke-linecap="round" stroke-width="6" stroke="#153144" fill="none" y2="619.3" x2="351.1" y1="604.3" x1="351.1" class="st2" id="XMLID_435_"/>
       <line stroke-miterlimit="10" stroke-linejoin="round" stroke-linecap="round" stroke-width="6" stroke="#153144" fill="none" opacity="0.36" y2="630.3" x2="351.1" y1="624.3" x1="351.1" class="st3" id="XMLID_434_"/>
      </g>
      <g id="XMLID_430_">
       <line stroke-miterlimit="10" stroke-linejoin="round" stroke-linecap="round" stroke-width="6" stroke="#153144" fill="none" y2="619.3" x2="364.1" y1="604.3" x1="364.1" class="st2" id="XMLID_432_"/>
       <line stroke-miterlimit="10" stroke-linejoin="round" stroke-linecap="round" stroke-width="6" stroke="#153144" fill="none" opacity="0.36" y2="630.3" x2="364.1" y1="624.3" x1="364.1" class="st3" id="XMLID_431_"/>
      </g>
      <g id="XMLID_427_">
       <line stroke-miterlimit="10" stroke-linejoin="round" stroke-linecap="round" stroke-width="6" stroke="#153144" fill="none" y2="619.3" x2="377.1" y1="604.3" x1="377.1" class="st2" id="XMLID_429_"/>
       <line stroke-miterlimit="10" stroke-linejoin="round" stroke-linecap="round" stroke-width="6" stroke="#153144" fill="none" opacity="0.36" y2="630.3" x2="377.1" y1="624.3" x1="377.1" class="st3" id="XMLID_428_"/>
      </g>
     </g>
    </g>
    <g id="svg_33">
     <g id="svg_34">
      <g id="XMLID_406_">
       <line stroke-miterlimit="10" stroke-linejoin="round" stroke-linecap="round" stroke-width="6" stroke="#153144" fill="none" y2="575.3" x2="351.1" y1="560.3" x1="351.1" class="st2" id="XMLID_408_"/>
       <line stroke-miterlimit="10" stroke-linejoin="round" stroke-linecap="round" stroke-width="6" stroke="#153144" fill="none" opacity="0.36" y2="586.3" x2="351.1" y1="580.3" x1="351.1" class="st3" id="XMLID_407_"/>
      </g>
      <g id="XMLID_403_">
       <line stroke-miterlimit="10" stroke-linejoin="round" stroke-linecap="round" stroke-width="6" stroke="#153144" fill="none" y2="575.3" x2="364.1" y1="560.3" x1="364.1" class="st2" id="XMLID_405_"/>
       <line stroke-miterlimit="10" stroke-linejoin="round" stroke-linecap="round" stroke-width="6" stroke="#153144" fill="none" opacity="0.36" y2="586.3" x2="364.1" y1="580.3" x1="364.1" class="st3" id="XMLID_404_"/>
      </g>
      <g id="XMLID_400_">
       <line stroke-miterlimit="10" stroke-linejoin="round" stroke-linecap="round" stroke-width="6" stroke="#153144" fill="none" y2="575.3" x2="377.1" y1="560.3" x1="377.1" class="st2" id="XMLID_402_"/>
       <line stroke-miterlimit="10" stroke-linejoin="round" stroke-linecap="round" stroke-width="6" stroke="#153144" fill="none" opacity="0.36" y2="586.3" x2="377.1" y1="580.3" x1="377.1" class="st3" id="XMLID_401_"/>
      </g>
     </g>
    </g>
    <g id="svg_35">
     <g id="svg_36">
      <g id="XMLID_379_">
       <line stroke-miterlimit="10" stroke-linejoin="round" stroke-linecap="round" stroke-width="6" stroke="#153144" fill="none" y2="531.3" x2="351.1" y1="516.3" x1="351.1" class="st2" id="XMLID_381_"/>
       <line stroke-miterlimit="10" stroke-linejoin="round" stroke-linecap="round" stroke-width="6" stroke="#153144" fill="none" opacity="0.36" y2="542.3" x2="351.1" y1="536.3" x1="351.1" class="st3" id="XMLID_380_"/>
      </g>
      <g id="XMLID_376_">
       <line stroke-miterlimit="10" stroke-linejoin="round" stroke-linecap="round" stroke-width="6" stroke="#153144" fill="none" y2="531.3" x2="364.1" y1="516.3" x1="364.1" class="st2" id="XMLID_378_"/>
       <line stroke-miterlimit="10" stroke-linejoin="round" stroke-linecap="round" stroke-width="6" stroke="#153144" fill="none" opacity="0.36" y2="542.3" x2="364.1" y1="536.3" x1="364.1" class="st3" id="XMLID_377_"/>
      </g>
      <g id="XMLID_373_">
       <line stroke-miterlimit="10" stroke-linejoin="round" stroke-linecap="round" stroke-width="6" stroke="#153144" fill="none" y2="531.3" x2="377.1" y1="516.3" x1="377.1" class="st2" id="XMLID_375_"/>
       <line stroke-miterlimit="10" stroke-linejoin="round" stroke-linecap="round" stroke-width="6" stroke="#153144" fill="none" opacity="0.36" y2="542.3" x2="377.1" y1="536.3" x1="377.1" class="st3" id="XMLID_374_"/>
      </g>
     </g>
    </g>
    <g id="svg_37">
     <g id="svg_38">
      <g id="XMLID_352_">
       <line stroke-miterlimit="10" stroke-linejoin="round" stroke-linecap="round" stroke-width="6" stroke="#153144" fill="none" y2="487.3" x2="351.1" y1="472.3" x1="351.1" class="st2" id="XMLID_354_"/>
       <line stroke-miterlimit="10" stroke-linejoin="round" stroke-linecap="round" stroke-width="6" stroke="#153144" fill="none" opacity="0.36" y2="498.3" x2="351.1" y1="492.3" x1="351.1" class="st3" id="XMLID_353_"/>
      </g>
      <g id="XMLID_349_">
       <line stroke-miterlimit="10" stroke-linejoin="round" stroke-linecap="round" stroke-width="6" stroke="#153144" fill="none" y2="487.3" x2="364.1" y1="472.3" x1="364.1" class="st2" id="XMLID_351_"/>
       <line stroke-miterlimit="10" stroke-linejoin="round" stroke-linecap="round" stroke-width="6" stroke="#153144" fill="none" opacity="0.36" y2="498.3" x2="364.1" y1="492.3" x1="364.1" class="st3" id="XMLID_350_"/>
      </g>
      <g id="XMLID_346_">
       <line stroke-miterlimit="10" stroke-linejoin="round" stroke-linecap="round" stroke-width="6" stroke="#153144" fill="none" y2="487.3" x2="377.1" y1="472.3" x1="377.1" class="st2" id="XMLID_348_"/>
       <line stroke-miterlimit="10" stroke-linejoin="round" stroke-linecap="round" stroke-width="6" stroke="#153144" fill="none" opacity="0.36" y2="498.3" x2="377.1" y1="492.3" x1="377.1" class="st3" id="XMLID_347_"/>
      </g>
     </g>
    </g>
    <g id="svg_39">
     <g id="svg_40">
      <g id="XMLID_325_">
       <line stroke-miterlimit="10" stroke-linejoin="round" stroke-linecap="round" stroke-width="6" stroke="#153144" fill="none" y2="443.3" x2="351.1" y1="428.3" x1="351.1" class="st2" id="XMLID_327_"/>
       <line stroke-miterlimit="10" stroke-linejoin="round" stroke-linecap="round" stroke-width="6" stroke="#153144" fill="none" opacity="0.36" y2="454.3" x2="351.1" y1="448.3" x1="351.1" class="st3" id="XMLID_326_"/>
      </g>
      <g id="XMLID_322_">
       <line stroke-miterlimit="10" stroke-linejoin="round" stroke-linecap="round" stroke-width="6" stroke="#153144" fill="none" y2="443.3" x2="364.1" y1="428.3" x1="364.1" class="st2" id="XMLID_324_"/>
       <line stroke-miterlimit="10" stroke-linejoin="round" stroke-linecap="round" stroke-width="6" stroke="#153144" fill="none" opacity="0.36" y2="454.3" x2="364.1" y1="448.3" x1="364.1" class="st3" id="XMLID_323_"/>
      </g>
      <g id="XMLID_319_">
       <line stroke-miterlimit="10" stroke-linejoin="round" stroke-linecap="round" stroke-width="6" stroke="#153144" fill="none" y2="443.3" x2="377.1" y1="428.3" x1="377.1" class="st2" id="XMLID_321_"/>
       <line stroke-miterlimit="10" stroke-linejoin="round" stroke-linecap="round" stroke-width="6" stroke="#153144" fill="none" opacity="0.36" y2="454.3" x2="377.1" y1="448.3" x1="377.1" class="st3" id="XMLID_320_"/>
      </g>
     </g>
    </g>
   </g>
   <ellipse stroke-miterlimit="10" stroke-linejoin="round" stroke-linecap="round" stroke-width="6" stroke="#153144" fill="none" ry="56.9" rx="41" cy="559.2" cx="713.8" class="st2" id="XMLID_130_"/>
   <line stroke-miterlimit="10" stroke-linejoin="round" stroke-linecap="round" stroke-width="6" stroke="#153144" fill="none" y2="580.8" x2="727.1" y1="592.6" x1="715.4" class="st2" id="XMLID_129_"/>
   <line stroke-miterlimit="10" stroke-linejoin="round" stroke-linecap="round" stroke-width="6" stroke="#153144" fill="none" y2="563" x2="701.3" y1="574.7" x1="713.8" class="st2" id="XMLID_128_"/>
   <line stroke-miterlimit="10" stroke-linejoin="round" stroke-linecap="round" stroke-width="6" stroke="#153144" fill="none" y2="667.4" x2="715.4" y1="546.2" x1="715.4" class="st2" id="XMLID_127_"/>
   <line stroke-miterlimit="10" stroke-linejoin="round" stroke-linecap="round" stroke-width="6" stroke="#153144" fill="none" y2="239.4" x2="451.6" y1="187" x1="451.6" class="st2" id="XMLID_132_"/>
  </g>
  <ellipse fill="#153144" ry="11.2" rx="19" cy="573.7" cx="152.5" class="st4" id="XMLID_6_"/>
  <polygon fill="#FFFFFF" points="387.1,433 230.6,433 230.6,398.1 185.8,407.1 230.6,365.4 230.6,286.4 387.1,286.4 " class="st0" id="XMLID_96_"/>
  <path fill="#FFFFFF" d="m371.9,433l-131.1,0c-8.4,0 -15.2,-6.8 -15.2,-15.2l0,-19.7l-44.9,9l44.9,-41.7l0,-63.8c0,-8.4 6.8,-15.2 15.2,-15.2l131.1,0c8.4,0 15.2,6.8 15.2,15.2l0,116.2c0,8.4 -6.8,15.2 -15.2,15.2z" class="st0" id="XMLID_104_"/>
  <path stroke-miterlimit="10" stroke-linejoin="round" stroke-linecap="round" stroke-width="8" stroke="#153144" fill="none" d="m371.9,433l-131.1,0c-8.4,0 -15.2,-6.8 -15.2,-15.2l0,-19.7l-44.9,9l44.9,-41.7l0,-63.8c0,-8.4 6.8,-15.2 15.2,-15.2l131.1,0c8.4,0 15.2,6.8 15.2,15.2l0,116.2c0,8.4 -6.8,15.2 -15.2,15.2z" class="st5" id="XMLID_67_"/>
  <path fill="#EF2C54" d="m822,699.7c-4.1,-46 -38.4,-82 -80.1,-82c-41.7,0 -76.1,36 -80.1,82l160.2,0z" class="st6" id="XMLID_45_"/>
  <path fill="#7EB25B" opacity="0.3" d="m766,649c0,-10.7 -3.1,-20.8 -8.4,-29.6c-5.1,-1.1 -10.3,-1.7 -15.7,-1.7c-41.7,0 -76.1,36 -80.1,82l74.8,0c17.7,-11.3 29.4,-29.8 29.4,-50.7z" class="st7" id="XMLID_88_"/>
  <path fill="#EF2C54" d="m864.5,699.7c-2.2,-24.4 -20.4,-43.5 -42.5,-43.5c-22.1,0 -40.3,19.1 -42.5,43.5l85,0z" class="st6" id="XMLID_91_"/>
  <path fill="#7EB25B" opacity="0.3" d="m834.8,672.8c0,-5.7 -1.6,-11 -4.5,-15.7c-2.7,-0.6 -5.5,-0.9 -8.3,-0.9c-22.1,0 -40.3,19.1 -42.5,43.5l39.7,0c9.4,-6 15.6,-15.8 15.6,-26.9z" class="st7" id="XMLID_90_"/>
  <line stroke-miterlimit="10" stroke-linejoin="round" stroke-linecap="round" stroke-width="8" stroke="#153144" fill="none" y2="699.7" x2="745.7" y1="648.1" x1="745.7" class="st5" id="XMLID_37_"/>
  <line stroke-miterlimit="10" stroke-linejoin="round" stroke-linecap="round" stroke-width="8" stroke="#153144" fill="none" y2="672.9" x2="745.7" y1="656.2" x1="718.7" class="st5" id="XMLID_41_"/>
  <line stroke-miterlimit="10" stroke-linejoin="round" stroke-linecap="round" stroke-width="8" stroke="#153144" fill="none" y2="673.9" x2="767.4" y1="691.3" x1="746.2" class="st5" id="XMLID_54_"/>
  <ellipse fill="#EF2C54" ry="107" rx="75" cy="419.7" cx="787.7" class="st6" id="XMLID_46_"/>
  <path fill="#7EB25B" opacity="0.3" d="m712.7,419.7c0,23 5.1,44.3 13.8,61.8c7.8,4.4 16.2,6.8 25,6.8c37.7,0 68.3,-43.6 68.3,-97.5c0,-31.8 -10.7,-60 -27.2,-77.8c-1.6,-0.2 -3.3,-0.2 -4.9,-0.2c-41.4,-0.1 -75,47.8 -75,106.9z" class="st7" id="XMLID_87_"/>
  <path stroke-miterlimit="10" stroke-linejoin="round" stroke-linecap="round" stroke-width="8" stroke="#153144" fill="none" d="m871.3,699.7l-633.3,0c-8.7,0 -15.8,-7.1 -15.8,-15.8l0,0c0,-8.7 7.1,-15.8 15.8,-15.8l20.2,0c7,0 12.7,-5.7 12.7,-12.7l0,0c0,-7 -5.7,-12.7 -12.7,-12.7l-72.2,0c-7.5,0 -13.5,-6 -13.5,-13.5l0,0c0,-7.5 6,-13.5 13.5,-13.5l15.2,0c10.9,0 19.7,-8.8 19.7,-19.7l0,0c0,-10.9 -8.8,-19.7 -19.7,-19.7l-48.7,0" class="st5" id="XMLID_84_"/>
  <line stroke-miterlimit="10" stroke-linejoin="round" stroke-linecap="round" stroke-width="8" stroke="#153144" fill="none" y2="699.7" x2="893.3" y1="699.7" x1="922.6" class="st5" id="XMLID_1_"/>
  <path fill="#EF2C54" d="m116.9,435.5l0,0c19.1,-20.9 52,-20.9 71.1,0l0,0c13.3,14.6 16.3,36 7.6,53.7l-43.1,87.1l-43.1,-87.1c-8.8,-17.7 -5.8,-39.1 7.5,-53.7z" class="st6" id="XMLID_11_"/>
  <path fill="#EF2C54" d="m116.9,454.3l0,0c19.1,-20.9 52,-20.9 71.1,0l0,0c6,6.6 9.9,14.6 11.6,23c3,-14.8 -1.1,-30.4 -11.6,-41.9l0,0c-19.1,-20.9 -52,-20.9 -71.1,0l0,0c-10.5,11.5 -14.6,27.1 -11.6,41.9c1.7,-8.4 5.6,-16.3 11.6,-23z" class="st6" id="XMLID_95_"/>
  <path stroke-miterlimit="10" stroke-linejoin="round" stroke-linecap="round" stroke-width="8" stroke="#153144" fill="none" d="m116.9,435.5l0,0c19.1,-20.9 52,-20.9 71.1,0l0,0c13.3,14.6 16.3,36 7.6,53.7l-43.1,87.1l-43.1,-87.1c-8.8,-17.7 -5.8,-39.1 7.5,-53.7z" class="st5" id="XMLID_4_"/>
  <circle fill="#FFFFFF" r="23.3" cy="467.7" cx="152.5" class="st0" id="XMLID_14_"/>
  <circle stroke-miterlimit="10" stroke-linejoin="round" stroke-linecap="round" stroke-width="8" stroke="#153144" fill="none" r="23.3" cy="467.7" cx="152.5" class="st5" id="XMLID_101_"/>
  <ellipse stroke-miterlimit="10" stroke-linejoin="round" stroke-linecap="round" stroke-width="6" stroke="#153144" fill="none" ry="17.4" rx="7.6" cy="350.7" cx="784.1" class="st2" id="XMLID_20_"/>
  <ellipse stroke-miterlimit="10" stroke-linejoin="round" stroke-linecap="round" stroke-width="6" stroke="#153144" fill="none" ry="17.4" rx="7.6" cy="408.3" cx="754" class="st2" transform="matrix(0.7178 -0.6963 0.6963 0.7178 -71.4944 640.2252)" id="XMLID_18_"/>
  <ellipse stroke-miterlimit="10" stroke-linejoin="round" stroke-linecap="round" stroke-width="6" stroke="#153144" fill="none" ry="7.6" rx="17.4" cy="507.9" cx="692.2" class="st2" transform="matrix(0.5119 -0.859 0.859 0.5119 -98.4599 842.5667)" id="XMLID_38_"/>
  <ellipse stroke-miterlimit="10" stroke-linejoin="round" stroke-linecap="round" stroke-width="6" stroke="#153144" fill="none" ry="17.4" rx="7.6" cy="607.8" cx="845.5" class="st2" transform="matrix(1 -1.413290e-03 1.413290e-03 1 -0.8581 1.1955)" id="XMLID_82_"/>
  <ellipse stroke-miterlimit="10" stroke-linejoin="round" stroke-linecap="round" stroke-width="6" stroke="#153144" fill="none" ry="7.6" rx="17.4" cy="394" cx="821.7" class="st2" transform="matrix(0.5674 -0.8234 0.8234 0.5674 31.0156 846.9899)" id="XMLID_19_"/>
  <ellipse stroke-miterlimit="10" stroke-linejoin="round" stroke-linecap="round" stroke-width="6" stroke="#153144" fill="none" ry="5.9" rx="13.5" cy="472.8" cx="818.3" class="st2" transform="matrix(0.5674 -0.8234 0.8234 0.5674 -35.3029 878.3284)" id="XMLID_21_"/>
  <line stroke-miterlimit="10" stroke-linejoin="round" stroke-linecap="round" stroke-width="8" stroke="#153144" fill="none" y2="440.7" x2="810.2" y1="460.7" x1="787.7" class="st5" id="XMLID_22_"/>
  <line stroke-miterlimit="10" stroke-linejoin="round" stroke-linecap="round" stroke-width="8" stroke="#153144" fill="none" y2="472.8" x2="759.7" y1="494.7" x1="787.7" class="st5" id="XMLID_23_"/>
  <g id="XMLID_24_">
   <polyline stroke-miterlimit="10" stroke-linejoin="round" stroke-linecap="round" stroke-width="5" stroke="#EF2C54" fill="none" points="283,396.20001220703125 262.5,396.20001220703125 262.5,348.79998779296875 246,348.79998779296875 255.89999389648438,329.70001220703125 " class="st8" id="XMLID_102_"/>
   <path fill="#153144" d="m267.5,391.2l0,-47.4l-13.3,0l7.3,-14.1l21.5,0l0,61.5l-15.5,0z" class="st4" id="XMLID_97_"/>
   <polyline stroke-miterlimit="10" stroke-linejoin="round" stroke-linecap="round" stroke-width="5" stroke="#EF2C54" fill="none" points="363.70001220703125,396.20001220703125 340.1000061035156,396.20001220703125 327.3999938964844,378.79998779296875 327.3999938964844,396.20001220703125 300.6000061035156,396.20001220703125 300.6000061035156,329.1000061035156 " class="st8" id="XMLID_103_"/>
   <path fill="#153144" d="m305.6,391.2l0,-62.1l16.8,0l0,28.2l19.6,-28.2l19.7,0l-23,30.3l24.9,31.8l-21.1,0l-20.2,-27.9l0,27.9l-16.7,0z" class="st4" id="XMLID_99_"/>
  </g>
  <line stroke-miterlimit="10" stroke-linejoin="round" stroke-linecap="round" stroke-width="8" stroke="#153144" fill="none" y2="699.7" x2="787.7" y1="419.7" x1="787.7" class="st5" id="XMLID_5_"/>
  <g id="svg_157">
   <path fill="#FFFFFF" d="m469.7,501c0,0 -12.1,16.8 -13.6,18.3s-40.8,7.3 -40.8,7.3l-4.4,14.7c0,0 48.8,-3.5 53.3,-8s17,-20.7 17,-20.7l-11.5,-11.6z" class="st0" id="XMLID_50_"/>
   <path stroke-miterlimit="10" stroke-linejoin="round" stroke-linecap="round" stroke-width="8" stroke="#153144" fill="none" d="m469.7,501c0,0 -12.1,16.8 -13.6,18.3s-45.3,7.3 -45.3,7.3l-4.4,14.7c0,0 53.2,-3.5 57.7,-8s17,-20.7 17,-20.7l-11.4,-11.6z" class="st5" id="XMLID_32_"/>
   <circle fill="#FFFFFF" r="59.7" cy="640" cx="563.1" class="st0" id="XMLID_47_"/>
   <circle fill="#FFFFFF" r="59.7" cy="640" cx="381" class="st0" id="XMLID_9_"/>
   <circle stroke-miterlimit="10" stroke-linejoin="round" stroke-linecap="round" stroke-width="8" stroke="#153144" fill="none" r="59.7" cy="640" cx="381" class="st5" id="XMLID_17_"/>
   <path fill="#90CAF8" d="m381,679.7c-21.9,0 -39.7,-17.8 -39.7,-39.7s17.8,-39.7 39.7,-39.7c21.9,0 39.7,17.8 39.7,39.7s-17.8,39.7 -39.7,39.7z" class="st9" id="XMLID_39_"/>
   <path stroke-miterlimit="10" stroke-linejoin="round" stroke-linecap="round" stroke-width="6" stroke="#153144" fill="none" d="m346.1,658.8c-3,-5.6 -4.7,-12 -4.7,-18.8c0,-13.3 6.5,-25 16.6,-32.2" class="st2" id="XMLID_81_"/>
   <path stroke-miterlimit="10" stroke-linejoin="round" stroke-linecap="round" stroke-width="6" stroke="#153144" fill="none" d="m404.1,621.4c4.1,5.1 6.5,11.5 6.5,18.6c0,3.7 -0.7,7.2 -1.9,10.4" class="st2" id="XMLID_85_"/>
   <line stroke-miterlimit="10" stroke-linejoin="round" stroke-linecap="round" stroke-width="8" stroke="#153144" fill="none" y2="541.3" x2="410.8" y1="640" x1="381" class="st5" id="XMLID_35_"/>
   <path fill="#EF2C54" d="m381,647c-3.8,0 -7,-3.2 -7,-7c0,-3.8 3.2,-7 7,-7s7,3.2 7,7c0,3.8 -3.2,7 -7,7z" class="st6" id="XMLID_7_"/>
   <path stroke-miterlimit="10" stroke-linejoin="round" stroke-linecap="round" stroke-width="8" stroke="#153144" fill="none" d="m381,647c-3.8,0 -7,-3.2 -7,-7c0,-3.8 3.2,-7 7,-7s7,3.2 7,7c0,3.8 -3.2,7 -7,7z" class="st5" id="XMLID_43_"/>
   <circle stroke-miterlimit="10" stroke-linejoin="round" stroke-linecap="round" stroke-width="8" stroke="#153144" fill="none" r="59.7" cy="640" cx="563.1" class="st5" id="XMLID_26_"/>
   <path fill="#90CAF8" d="m563.1,679.7c-21.9,0 -39.7,-17.8 -39.7,-39.7s17.8,-39.7 39.7,-39.7s39.7,17.8 39.7,39.7s-17.8,39.7 -39.7,39.7z" class="st9" id="XMLID_40_"/>
   <path stroke-miterlimit="10" stroke-linejoin="round" stroke-linecap="round" stroke-width="6" stroke="#153144" fill="none" d="m570.5,601c18.4,3.5 32.3,19.6 32.3,39" class="st2" id="XMLID_89_"/>
   <path stroke-miterlimit="10" stroke-linejoin="round" stroke-linecap="round" stroke-width="6" stroke="#153144" fill="none" d="m557.6,669.2c-7.5,-1.4 -14,-5.7 -18.4,-11.6" class="st2" id="XMLID_92_"/>
   <polygon stroke-miterlimit="10" stroke-linejoin="round" stroke-linecap="round" stroke-width="8" stroke="#153144" fill="none" points="409.7,559.8 464.6,642 563.5,641.9 508.6,559.7  " class="st5" id="XMLID_28_"/>
   <circle fill="#FFFFFF" r="26.2" cy="462.1" cx="468.6" class="st0" id="XMLID_51_"/>
   <line stroke-miterlimit="10" stroke-linejoin="round" stroke-linecap="round" stroke-width="8" stroke="#153144" fill="none" y2="488.3" x2="461.9" y1="451.4" x1="481.3" class="st5" id="XMLID_29_"/>
   <circle stroke-miterlimit="10" stroke-linejoin="round" stroke-linecap="round" stroke-width="8" stroke="#153144" fill="none" r="26.2" cy="462.1" cx="468.6" class="st5" id="XMLID_25_"/>
   <path fill="#CE2951" d="m502.1,458.1c2.1,-9.6 0.8,-18.4 -4.3,-24.5c-10.9,-13 -36.1,-9.4 -57.3,8.4c-5.8,4.9 -10.7,10.3 -14.7,16l76.3,0l0,0.1z" class="st10" id="XMLID_52_"/>
   <path fill="#AD254C" d="m497.8,433.6c-6.7,-8 -18.7,-9.7 -31.9,-5.7c7.1,0.4 13.1,2.9 17.1,7.7c4.7,5.7 6.2,13.6 4.7,22.5l14.4,0c2,-9.7 0.8,-18.4 -4.3,-24.5z" class="st11" id="XMLID_86_"/>
   <path stroke-miterlimit="10" stroke-linejoin="round" stroke-linecap="round" stroke-width="8" stroke="#153144" fill="none" d="m502.1,458.1c2.1,-9.6 0.8,-18.4 -4.3,-24.5c-10.9,-13 -36.1,-9.4 -57.3,8.4c-5.8,4.9 -10.7,10.3 -14.7,16l76.3,0l0,0.1z" class="st5" id="XMLID_31_"/>
   <path fill="#FFFFFF" d="m479.1,573.7c0,0 -7.6,6.2 -10.4,9c-2.8,2.8 -1.5,55.3 -1.5,55.3l14.2,0c0,0 4.8,-41.8 6.7,-43.7c1.8,-1.8 12.1,-8.7 12.1,-8.7l-21.1,-11.9z" class="st0" id="XMLID_70_"/>
   <path stroke-miterlimit="10" stroke-linejoin="round" stroke-linecap="round" stroke-width="8" stroke="#153144" fill="none" d="m479.1,573.7c0,0 -7.6,6.2 -10.4,9c-2.8,2.8 -1.5,55.3 -1.5,55.3l14.2,0c0,0 4.8,-41.8 6.7,-43.7c1.8,-1.8 12.1,-8.7 12.1,-8.7l-21.1,-11.9z" class="st5" id="XMLID_30_"/>
   <path fill="#90CAF8" d="m467.2,500.7l13.2,17l6.2,-7.3l21.7,36.7l49.3,3c0,0 -31.9,-51.7 -47.2,-63c-15.3,-11.3 -23.4,-6.1 -26.9,-2.7c-3.4,3.4 -16.3,16.3 -16.3,16.3z" class="st9" id="XMLID_49_"/>
   <path fill="#74BAE8" d="m526.2,548.1c-2.8,-30 -20,-54.7 -42.9,-63.6c-3.7,3.7 -16.1,16.1 -16.1,16.1l13.2,17l6.2,-7.3l21.7,36.7l17.9,1.1z" class="st12" id="XMLID_94_"/>
   <path stroke-miterlimit="10" stroke-linejoin="round" stroke-linecap="round" stroke-width="8" stroke="#153144" fill="none" d="m467.2,500.7l13.2,17l6.2,-7.3l21.7,39.7l49.3,0c0,0 -31.9,-51.7 -47.2,-63c-15.3,-11.3 -23.4,-6.1 -26.9,-2.7c-3.4,3.4 -16.3,16.3 -16.3,16.3z" class="st5" id="XMLID_33_"/>
   <path fill="#153144" d="m487.5,654.2l-33.6,0l0,-5.5c0,-4.9 3.8,-8.9 8.6,-9.2l24.9,-1.4l0,16.1l0.1,0z" class="st4" id="XMLID_16_"/>
   <path stroke-miterlimit="10" stroke-linejoin="round" stroke-linecap="round" stroke-width="8" stroke="#153144" fill="none" d="m487.5,654.2l-33.6,0l0,-5.5c0,-4.9 3.8,-8.9 8.6,-9.2l24.9,-1.4l0,16.1l0.1,0z" class="st5" id="XMLID_34_"/>
   <path fill="#CE2951" d="m476.9,572l23.2,17.7c0,0 49.9,-17 57.5,-39.7c-38,0 -49.3,0 -49.3,0l-31.4,22z" class="st10" id="XMLID_48_"/>
   <path fill="#AD254C" opacity="0.63" d="m525.3,550c-12.6,0 -17,0 -17,0l-31.4,22l5.6,4.3c1.2,-0.2 2.4,-0.4 3.7,-0.6c19.6,-4 34.9,-14.5 39.1,-25.7z" class="st13" id="XMLID_93_"/>
   <path stroke-miterlimit="10" stroke-linejoin="round" stroke-linecap="round" stroke-width="8" stroke="#153144" fill="none" d="m476.9,572l23.2,17.7c0,0 49.9,-17 57.5,-39.7c-38,0 -49.3,0 -49.3,0l-31.4,22z" class="st5" id="XMLID_27_"/>
   <path fill="#EF2C54" d="m563.5,649c-3.8,0 -7,-3.2 -7,-7c0,-3.8 3.2,-7 7,-7s7,3.2 7,7c0,3.8 -3.2,7 -7,7z" class="st6" id="XMLID_13_"/>
   <path stroke-miterlimit="10" stroke-linejoin="round" stroke-linecap="round" stroke-width="8" stroke="#153144" fill="none" d="m563.5,649c-3.8,0 -7,-3.2 -7,-7c0,-3.8 3.2,-7 7,-7s7,3.2 7,7c0,3.8 -3.2,7 -7,7z" class="st5" id="XMLID_12_"/>
   <line stroke-miterlimit="10" stroke-linejoin="round" stroke-linecap="round" stroke-width="8" stroke="#153144" fill="none" y2="435.2" x2="557.6" y1="435.2" x1="549.8" class="st5" id="XMLID_76_"/>
   <line stroke-miterlimit="10" stroke-linejoin="round" stroke-linecap="round" stroke-width="8" stroke="#153144" fill="none" y2="435.2" x2="536.7" y1="435.2" x1="487.5" class="st5" id="XMLID_63_"/>
   <line stroke-miterlimit="10" stroke-linejoin="round" stroke-linecap="round" stroke-width="8" stroke="#153144" fill="none" y2="656.2" x2="661.7" y1="656.2" x1="588.7" class="st5" id="XMLID_64_"/>
   <line stroke-miterlimit="10" stroke-linejoin="round" stroke-linecap="round" stroke-width="8" stroke="#153144" fill="none" y2="617.7" x2="682.3" y1="617.7" x1="675.3" class="st5" id="XMLID_77_"/>
   <line stroke-miterlimit="10" stroke-linejoin="round" stroke-linecap="round" stroke-width="8" stroke="#153144" fill="none" y2="617.7" x2="661.7" y1="617.7" x1="634.2" class="st5" id="XMLID_65_"/>
   <line stroke-miterlimit="10" stroke-linejoin="round" stroke-linecap="round" stroke-width="8" stroke="#153144" fill="none" y2="491" x2="589.6" y1="491" x1="551.3" class="st5" id="XMLID_66_"/>
   <line stroke-miterlimit="10" stroke-linejoin="round" stroke-linecap="round" stroke-width="8" stroke="#153144" fill="none" y2="576.3" x2="312.6" y1="576.3" x1="346.1" class="st5" id="XMLID_68_"/>
   <line stroke-miterlimit="10" stroke-linejoin="round" stroke-linecap="round" stroke-width="8" stroke="#153144" fill="none" y2="559.7" x2="357.9" y1="559.7" x1="374.7" class="st5" id="XMLID_80_"/>
  </g>
 </g>
</svg>