<svg width="1000" height="1000" xmlns="http://www.w3.org/2000/svg" version="1.1" xml:space="preserve">
 <g>
  <title>Layer 1</title>
  <g id="svg_170">
   <g id="XMLID_75_">
    <polygon id="XMLID_105_" class="st3" points="485.2,759.9 467.6,759.9 468.8,746.3 486.3,746.3   " fill="#FFAB91"/>
    <polygon id="XMLID_102_" class="st3" points="539.3,764.1 522.7,764.1 524.7,747.1 539.3,749.2   " fill="#FFAB91"/>
    <polygon id="XMLID_174_" class="st4" points="485.2,759.9 467.6,759.9 468.8,746.3 486.3,746.3   " fill="none" stroke="#46133C" stroke-width="3" stroke-linecap="round" stroke-linejoin="round" stroke-miterlimit="10"/>
    <polygon id="XMLID_175_" class="st4" points="539.3,764.1 522.7,764.1 524.7,747.1 539.3,749.2   " fill="none" stroke="#46133C" stroke-width="3" stroke-linecap="round" stroke-linejoin="round" stroke-miterlimit="10"/>
    <path id="XMLID_177_" class="st5" d="m459.6,578.6c3.3,0.9 -10.3,79.6 4.3,168c7.8,1.3 20.4,2.7 26.7,0.1c6.1,-6.1 6.6,-124.1 6.6,-132c5.3,1 8.4,2.3 11.7,5.6c4.2,4.2 9.5,119.2 9.5,127.9c6.9,3.3 22.1,3.8 26.5,1.9c4,-4 11,-158.3 3.1,-176.8c-8.5,4.7 -42.9,10.5 -88.4,5.3z" fill="#5F235A"/>
    <g id="XMLID_248_" class="st6" opacity="0.15">
     <path id="XMLID_249_" class="st5" d="m460,579.3c11.3,1 21.8,1.4 31.3,1.3c-9.7,-0.1 -20.4,-0.7 -31.7,-2c0.2,0 0.3,0.3 0.4,0.7z" fill="#5F235A"/>
     <path id="XMLID_250_" class="st5" d="m490.2,614.7c0,7.9 -0.6,125.9 -6.6,132c-1.8,0.7 -4.2,1.1 -6.8,1.3c5.3,0.3 10.5,0.1 13.9,-1.3c5.8,-5.8 6.6,-111.9 6.6,-129.8c-2,-1.1 -4.2,-1.7 -7.1,-2.2z" fill="#5F235A"/>
     <path id="XMLID_251_" class="st5" d="m548.1,573.2c-1.4,0.8 -3.6,1.6 -6.3,2.4c0.3,1.1 -74.7,3.2 -74.2,4.7c3.5,9.2 75.4,2.6 75.6,4.5c4.2,40.9 -1.7,161.7 -5.3,165.3c-1.2,0.5 -3.1,0.8 -5.4,1c5.3,0.3 10.2,0 12.4,-1c4.1,-4.1 11.1,-158.4 3.2,-176.9z" fill="#5F235A"/>
    </g>
    <g id="XMLID_125_">
     <path id="XMLID_164_" class="st5" d="m548.7,575.1c-0.2,-0.7 -0.4,-1.4 -0.6,-1.9c-6,3.4 -24.6,7.2 -50.7,7.4c23.9,0.3 42.1,-2.5 51.3,-5.5z" fill="#5F235A"/>
     <path id="XMLID_223_" class="st2" d="m467.6,746.3c-13.9,-84.5 -4.3,-159.1 0,-167.1c-1.8,-0.2 -6.1,-0.4 -8,-0.6c3.3,0.9 -10.3,79.6 4.3,168c5.3,0.9 12.8,1.8 19.1,1.5c-4.9,-0.2 -11.5,-1.2 -15.4,-1.8z" fill="#FFFFFF"/>
     <path id="XMLID_246_" class="st2" d="m520.6,748.9c2.1,-23.6 -1.1,-125.7 -9.4,-130.2c-4.1,-2.2 -5.7,-3.7 -11,-4.7c0,0.3 2.4,1.3 2.4,1.9c2.5,0.9 4.5,2.2 6.5,4.2c4.2,4.2 9.5,119.2 9.5,127.9c4.9,2.3 13.9,3.3 20.3,2.9c-5.6,-0.1 -14.7,-0.2 -18.3,-2z" fill="#FFFFFF"/>
    </g>
    <path id="XMLID_163_" class="st4" d="m459.6,578.6c3.3,0.9 -10.3,79.6 4.3,168c7.8,1.3 20.4,2.7 26.7,0.1c6.1,-6.1 6.6,-124.1 6.6,-132c5.3,1 8.4,2.3 11.7,5.6c4.2,4.2 9.5,119.2 9.5,127.9c6.9,3.3 22.1,3.8 26.5,1.9c4,-4 11,-158.3 3.1,-176.8c-8.5,4.7 -42.9,10.5 -88.4,5.3z" fill="none" stroke="#46133C" stroke-width="3" stroke-linecap="round" stroke-linejoin="round" stroke-miterlimit="10"/>
    <line id="XMLID_173_" class="st4" x1="497.3" y1="614.7" x2="491.5" y2="614.1" fill="none" stroke="#46133C" stroke-width="3" stroke-linecap="round" stroke-linejoin="round" stroke-miterlimit="10"/>
    <path id="XMLID_182_" class="st7" d="m444.2,777.1c0,0 21.5,1.3 39.4,-1.9c8.3,0 6.8,-18.2 6.8,-18.2s-10.3,3.3 -18.9,1.6s-6.9,-2.8 -6.9,-2.8s-33.7,5.6 -38.2,10.1c-4.4,4.4 -1.5,11.2 17.8,11.2z" fill="#75CC9C"/>
    <g id="XMLID_294_">
     <path id="XMLID_317_" class="st2" d="m431.6,767.3c4.3,-4.3 27.5,-8.2 35.5,-9.6c-3.6,-1.1 -2.5,-1.8 -2.5,-1.8s-33.7,5.6 -38.2,10.1c-3.6,3.6 -2.3,8.8 8.7,10.5c-6.1,-2.4 -8.3,-4.4 -3.5,-9.2z" fill="#FFFFFF"/>
    </g>
    <path id="XMLID_181_" class="st7" d="m505.8,781.9c0.4,3.3 3.7,10.6 20.6,6.6c11.9,-2.8 13.2,-10.5 15.6,-15.7c2.4,-5.2 -0.7,-14 -0.7,-14s-1.7,3.6 -7,3.6c-7.5,0 -14.2,-4.5 -14.2,-4.5c-0.4,-0.7 -15,17.8 -14.3,24z" fill="#75CC9C"/>
    <path id="XMLID_322_" class="st2" d="m528.5,786.9c-16.8,4 -18.4,-5 -18.8,-8.4c-0.5,-4.3 6.6,-14.8 11,-20.4c-0.3,-0.2 -0.5,-0.3 -0.5,-0.3c-0.4,-0.7 -15.1,17.8 -14.4,24c0.4,3.3 3.7,10.6 20.6,6.6c5.2,-1.2 8.4,-3.4 10.5,-5.9c-1.8,1.1 -5.7,3.8 -8.4,4.4z" fill="#FFFFFF"/>
    <path id="XMLID_171_" class="st4" d="m444.2,777.1c0,0 21.5,1.3 39.4,-1.9c8.3,0 6.8,-18.2 6.8,-18.2s-10.2,2.6 -18.9,1.6c-3.7,-0.4 -5.5,-1.6 -6.4,-2.3c-0.4,-0.3 -0.9,-0.5 -1.4,-0.4c-5.3,0.9 -33.3,5.9 -37.3,9.9c-4.4,4.5 -1.5,11.3 17.8,11.3z" fill="none" stroke="#46133C" stroke-width="3" stroke-linecap="round" stroke-linejoin="round" stroke-miterlimit="10"/>
    <path id="XMLID_176_" class="st4" d="m505.8,781.9c0.7,3.3 3.7,10.6 20.6,6.6c11.9,-2.8 14.2,-10.2 15.6,-15.7c1.4,-5.4 -0.7,-14 -0.7,-14s-1.7,3.6 -7,3.6c-7.5,0 -13.2,-3.9 -13.2,-3.9c-3.6,1.6 -17.3,14.2 -15.3,23.4z" fill="none" stroke="#46133C" stroke-width="3" stroke-linecap="round" stroke-linejoin="round" stroke-miterlimit="10"/>
    <path id="XMLID_58_" class="st4" d="m445.9,757.9c0,0 4.6,0.6 5.2,5.3" fill="none" stroke="#46133C" stroke-width="3" stroke-linecap="round" stroke-linejoin="round" stroke-miterlimit="10"/>
    <path id="XMLID_59_" class="st4" d="m451.1,756c0,0 4.6,0.6 5.2,5.3" fill="none" stroke="#46133C" stroke-width="3" stroke-linecap="round" stroke-linejoin="round" stroke-miterlimit="10"/>
    <path id="XMLID_79_" class="st4" d="m456.4,754.6c0,0 4.6,0.6 5.2,5.3" fill="none" stroke="#46133C" stroke-width="3" stroke-linecap="round" stroke-linejoin="round" stroke-miterlimit="10"/>
    <path id="XMLID_62_" class="st4" d="m517.5,772.3c0,0 4.1,-2.1 7.3,1.5" fill="none" stroke="#46133C" stroke-width="3" stroke-linecap="round" stroke-linejoin="round" stroke-miterlimit="10"/>
    <path id="XMLID_60_" class="st4" d="m519.7,768.5c0,0 4.1,-2.1 7.3,1.5" fill="none" stroke="#46133C" stroke-width="3" stroke-linecap="round" stroke-linejoin="round" stroke-miterlimit="10"/>
    <path id="XMLID_68_" class="st4" d="m521.1,764.7c0,0 4.1,-2.1 7.3,1.5" fill="none" stroke="#46133C" stroke-width="3" stroke-linecap="round" stroke-linejoin="round" stroke-miterlimit="10"/>
    <path id="XMLID_101_" class="st4" d="m529.9,578.6c0,0 7.6,32.1 21.8,32.1" fill="none" stroke="#46133C" stroke-width="3" stroke-linecap="round" stroke-linejoin="round" stroke-miterlimit="10"/>
    <path id="XMLID_112_" class="st4" d="m467.6,580.3c0,0 -2.1,21 -8.7,23.4" fill="none" stroke="#46133C" stroke-width="3" stroke-linecap="round" stroke-linejoin="round" stroke-miterlimit="10"/>
   </g>
   <g id="XMLID_74_">
    <path id="XMLID_180_" class="st8" d="m533,532.1l32.6,0c0,0 20.5,-82 -38,-125.9c-3.7,-3.7 -17.6,-3.9 -17.6,-3.9c-28.4,8.9 -37.5,27.9 -37.5,27.9l-13,-23c0,0 -15.2,5.2 -16.8,30.2c-18.1,25.7 -48.9,27.9 -66.8,10.1c-5.9,5.6 -21.8,22.3 -21.8,22.3s16.4,19.4 44.6,22.3c29.5,3 50.2,-15.9 56,-22.3c4.8,4.8 13.2,72 1.1,104.2c-0.6,1.7 0.2,3.6 1.9,4.2c5.1,1.7 17.1,4.4 40.7,4.2c16.8,-0.1 46.7,-5.4 46.7,-5.4l-12.1,-44.9z" fill="#EE406D"/>
    <polygon id="XMLID_145_" class="st8" points="375.9,449.6 358.8,474.3 352.2,468.5   " fill="#EE406D"/>
    <path id="XMLID_124_" class="st9" d="m497.4,532.1c0,0 -15.9,49.7 -6.1,59.9c5.2,5.4 43.6,9.8 46.5,10.8c3,1 13.6,0.9 13.6,0.9l-1.2,-19.4l-52.8,-52.2z" opacity="0.15" fill="#5F235A" enable-background="new"/>
    <path id="XMLID_252_" class="st8" d="m520.1,443.2c0,0 9,18.9 9.8,53.3c0.4,19.1 -4.3,35.6 -4.3,35.6l6,3.3c0,0 4.7,-6.8 4.8,-33.5c0.1,-24 -5.9,-43.8 -16.3,-58.7z" fill="#EE406D"/>
    <g id="XMLID_127_">
     <path id="XMLID_210_" class="st8" d="m466.5,429.3c0,0 0.9,-1.8 2.9,-4.6l-9.9,-17.5c0,0 -1.8,0.6 -4.2,2.4l11.2,19.7z" fill="#EE406D"/>
     <path id="XMLID_217_" class="st8" d="m527.6,406.2c-2.3,-2.3 -8.4,-3.2 -12.7,-3.6c2.8,0.6 5.4,1.5 6.7,2.8c58.5,43.9 38,125.9 38,125.9l-32.6,0l12.1,44.6c0,0 -29.9,5.3 -46.7,5.4c-10.7,0.1 -19,-0.4 -25.4,-1.2c6.8,1.2 16.9,2.1 31.4,2c16.8,-0.1 46.7,-5.4 46.7,-5.4l-12.1,-44.6l32.6,0c0,0 20.5,-82 -38,-125.9z" fill="#EE406D"/>
     <path id="XMLID_221_" class="st8" d="m452.4,465.1c-5.8,6.4 -30.1,28.9 -59.4,26.1c1.8,0.3 3.7,0.6 5.7,0.8c24.6,2.5 47.2,-14.3 56,-22.3c-0.7,-2.5 -1.6,-4 -2.3,-4.6z" fill="#EE406D"/>
    </g>
    <g id="XMLID_114_">
     <path id="XMLID_119_" class="st8" d="m476.1,432.5c0,0 9.4,-19.6 38.6,-28.7c0,0 5.7,0.1 10.9,1.1c-5.2,-2.4 -15.6,-2.6 -15.6,-2.6c-22.8,7.1 -33.2,20.8 -36.3,25.9l2.4,4.3z" fill="#EE406D"/>
     <path id="XMLID_120_" class="st2" d="m375.9,449.6c18.4,18.4 50.9,16.7 69.5,-9.7c1.3,-20.4 10.8,-29 14.9,-31.3l-0.8,-1.4c0,0 -15.2,5.2 -16.8,30.2c-18.1,25.7 -48.9,27.9 -66.8,10.1c-5.9,5.6 -21.8,22.3 -21.8,22.3s0,-1.1 1.1,0c4.4,-4.7 15.8,-15.6 20.7,-20.2z" fill="#FFFFFF"/>
     <path id="XMLID_123_" class="st2" d="m457.7,473.3c-0.3,0.3 -0.7,0.7 -1,1.1c4.7,16.7 9.7,71.4 -0.9,99.5c-0.6,1.7 0.2,3.6 1.9,4.2c0.5,0.2 1.2,0.4 1.8,0.6c11.5,-34 3.1,-100.6 -1.8,-105.4z" fill="#FFFFFF"/>
    </g>
    <path id="XMLID_6_" class="st4" d="m533,532.1l32.6,0c0,0 20.5,-82 -38,-125.9c-3.7,-3.7 -17.6,-3.9 -17.6,-3.9c-28.4,8.9 -37.5,27.9 -37.5,27.9l-13,-23c0,0 -15.2,5.2 -16.8,30.2c-18.1,25.7 -48.9,27.9 -66.8,10.1c-5.9,5.6 -21.8,22.3 -21.8,22.3s16.4,19.4 44.6,22.3c29.5,3 50.2,-15.9 56,-22.3c4.8,4.8 13.2,72 1.1,104.2c-0.6,1.7 0.2,3.6 1.9,4.2c5.1,1.7 17.1,4.4 40.7,4.2c16.8,-0.1 46.7,-5.4 46.7,-5.4l-12.1,-44.9z" fill="none" stroke="#46133C" stroke-width="3" stroke-linecap="round" stroke-linejoin="round" stroke-miterlimit="10"/>
    <g id="XMLID_42_">
     <path id="XMLID_38_" class="st10" d="m571.5,595.4c-22.5,-0.5 -44.8,-2.1 -67.2,-4.6c-6.7,-0.8 -11.7,-6.7 -11.4,-13.4c0.7,-13.1 2,-26.2 3.7,-39.3c0.9,-6.7 6.8,-11.6 13.6,-11.1c22,1.5 44,4.1 66.1,7.5c6.4,1 11.1,6.6 10.9,13.1c-0.4,12.2 -1.3,24.3 -2.6,36.4c-0.8,6.6 -6.5,11.6 -13.1,11.4z" fill="#FFA45A"/>
     <path id="XMLID_92_" class="st10" d="m571.5,595.4c-22.5,-0.5 -44.8,-2.1 -67.2,-4.6c-6.7,-0.8 -11.7,-6.7 -11.4,-13.4c0.7,-13.1 2,-26.2 3.7,-39.3c0.9,-6.7 6.8,-11.6 13.6,-11.1c22,1.5 44,4.1 66.1,7.5c6.4,1 11.1,6.6 10.9,13.1c-0.4,12.2 -1.3,24.3 -2.6,36.4c-0.8,6.6 -6.5,11.6 -13.1,11.4z" fill="#FFA45A"/>
     <path id="XMLID_185_" class="st2" d="m497.3,578.8c0.7,-13.1 2,-26.2 3.7,-39.3c0.9,-6.7 6.8,-11.6 13.6,-11.1c22,1.5 44,4.1 66.1,7.5c0.7,0.1 1.4,0.3 2,0.5c-1.8,-1.5 -4,-2.6 -6.5,-3c-22.1,-3.4 -44.1,-6 -66.1,-7.5c-6.7,-0.5 -12.7,4.4 -13.6,11.1c-1.7,13.1 -2.9,26.2 -3.7,39.3c-0.3,5.9 3.4,11.1 8.9,12.9c-2.9,-2.5 -4.6,-6.3 -4.4,-10.4z" fill="#FFFFFF"/>
     <path id="XMLID_29_" class="st4" d="m571.5,595.4c-22.5,-0.5 -44.8,-2.1 -67.2,-4.6c-6.7,-0.8 -11.7,-6.7 -11.4,-13.4c0.7,-13.1 2,-26.2 3.7,-39.3c0.9,-6.7 6.8,-11.6 13.6,-11.1c22,1.5 44,4.1 66.1,7.5c6.4,1 11.1,6.6 10.9,13.1c-0.4,12.2 -1.3,24.3 -2.6,36.4c-0.8,6.6 -6.5,11.6 -13.1,11.4z" fill="none" stroke="#46133C" stroke-width="3" stroke-linecap="round" stroke-linejoin="round" stroke-miterlimit="10"/>
    </g>
    <path id="XMLID_20_" class="st4" d="m533,532.1c12.7,-59.7 -14.5,-91.1 -14.5,-91.1" fill="none" stroke="#46133C" stroke-width="3" stroke-linecap="round" stroke-linejoin="round" stroke-miterlimit="10"/>
    <path id="XMLID_143_" class="st11" d="m450.3,462.9c0,0 2.5,1.3 4.4,6.8" fill="none" stroke="#46133C" stroke-width="4" stroke-linecap="round" stroke-linejoin="round" stroke-miterlimit="10"/>
    <path id="XMLID_95_" class="st4" d="m487.2,499c0,0 1.2,6.3 -1.9,17.8" fill="none" stroke="#46133C" stroke-width="3" stroke-linecap="round" stroke-linejoin="round" stroke-miterlimit="10"/>
   </g>
   <path id="XMLID_37_" class="st12" d="m481.1,372c0,0 0.3,13 0.3,18.6s-18.5,23.7 -18.5,23.7s-7.3,-10.8 -4.7,-25.7c2.6,-14.9 17,-16.6 17,-16.6l5.9,0z" fill="#CC1F49"/>
   <g id="XMLID_31_">
    <path id="XMLID_32_" class="st3" d="m464.8,416.9c0,-6.8 7,-29.3 -3.1,-50.5c-7,-14.6 -31.3,-19.1 -45.2,-30.3c-40.4,-32.6 -20.3,-122.2 -20.3,-122.2s16.1,-25.6 68.7,-25.6c17.5,0 33,7.5 47.2,50.7c14.1,43.2 1.2,67.2 1.2,67.2c-7.4,15.1 -14.7,51.6 5.3,86.4l4.2,6.3c0,0 -40.3,16.6 -45.5,33.1c-5.2,16.4 -12.5,-15.1 -12.5,-15.1z" fill="#FFAB91"/>
    <path id="XMLID_144_" class="st13" d="m518.5,392.5c-20,-34.8 -12.7,-71.3 -5.3,-86.4c0,0 13,-24 -1.2,-67.2c-14.1,-43.2 -29.7,-50.7 -47.2,-50.7c-21,0 -36.2,4.1 -46.9,9c10,-3.5 22.9,-6 39.5,-6c3.9,0 7.7,0.4 11.5,1.5c-13,1.2 -68.4,12 -72.7,21.2c0,0 6,18.5 28.9,25.9c15.7,5.1 32.8,3.5 47.4,2.1c5.2,1.6 6,17.6 36,26.4c11.1,3.3 -4.2,47.7 -6.6,61c-2.3,12.6 -0.7,38 5,51.4c3.7,8.8 -0.2,7.1 -8,12.5c-2.4,1.6 -12.8,8.3 -13.4,9.2c-7.6,10.2 0.5,6.9 -15.1,31c2.2,4 4.7,5.5 6.8,-1.4c5.1,-16.5 45.5,-33.1 45.5,-33.1l-4.2,-6.4z" opacity="0.43" fill="#FFAB91" enable-background="new"/>
    <path id="XMLID_98_" class="st2" d="m467.5,419.5c0,-7.3 9.4,-30.3 -1.4,-53c-7.5,-15.6 -31.3,-21.2 -46.1,-33.2c-35.4,-28.5 -25.7,-97.7 -21.7,-122.1c-1.4,1.6 -2,2.6 -2,2.6s-20.1,89.7 20.3,122.2c13.9,11.2 38.2,15.7 45.2,30.3c10.1,21.3 3.1,43.7 3.1,50.5c0,0 2,9.5 3.9,12.9c-2.2,-5.8 -1.3,-10.2 -1.3,-10.2z" fill="#FFFFFF"/>
    <path id="XMLID_3_" class="st4" d="m464.8,416.9c0,-6.8 7,-29.3 -3.1,-50.5c-7,-14.6 -31.3,-19.1 -45.2,-30.3c-40.4,-32.6 -20.3,-122.2 -20.3,-122.2s16.1,-25.6 68.7,-25.6c17.5,0 33,7.5 47.2,50.7c14.1,43.2 1.2,67.2 1.2,67.2c-7.4,15.1 -14.7,51.6 5.3,86.4l4.2,6.3c0,0 -40.3,16.6 -45.5,33.1c-5.2,16.4 -12.5,-15.1 -12.5,-15.1z" fill="none" stroke="#46133C" stroke-width="3" stroke-linecap="round" stroke-linejoin="round" stroke-miterlimit="10"/>
   </g>
   <path id="XMLID_7_" class="st4" d="m421.1,273.9c0,0 0.4,9.8 -6.5,18.6c1.8,4.5 10.4,3.8 10.4,3.8" fill="none" stroke="#46133C" stroke-width="3" stroke-linecap="round" stroke-linejoin="round" stroke-miterlimit="10"/>
   <g id="XMLID_69_">
    <path id="XMLID_57_" class="st14" d="m417.3,308.1c-0.1,0.7 13.6,4.7 21.2,-4c-4,9.6 -9.5,13.8 -21.9,13.8" fill="#FF5757"/>
    <path id="XMLID_12_" class="st4" d="m411.5,306.5c-0.1,0.7 19.4,6.3 26.9,-2.4c-4,9.6 -9.5,13.8 -21.9,13.8" fill="none" stroke="#46133C" stroke-width="3" stroke-linecap="round" stroke-linejoin="round" stroke-miterlimit="10"/>
    <path id="XMLID_14_" class="st4" d="m416.5,317.9c0,0 3.5,-5.2 0,-9.8" fill="none" stroke="#46133C" stroke-width="3" stroke-linecap="round" stroke-linejoin="round" stroke-miterlimit="10"/>
   </g>
   <path id="XMLID_93_" class="st15" d="m455.3,286.6l-16.4,-2.2c-6.2,-0.8 -10.5,-7.3 -9.7,-14.4l1,-8.3c0.8,-7.1 6.5,-12.4 12.7,-11.8l16.4,1.6c6.5,0.6 11.2,7.2 10.3,14.6l-1,8.7c-0.8,7.4 -6.8,12.7 -13.3,11.8z" opacity="0.71" fill="#FFFFFF" enable-background="new"/>
   <path id="XMLID_73_" class="st15" d="m407.7,283.6l-18.5,-1.2c-7,-0.4 -12.3,-6.9 -12,-14.3l0.4,-8.7c0.4,-7.5 6.3,-13.3 13.3,-13.1l18.5,0.6c7.3,0.2 13.1,6.7 12.7,14.5l-0.4,9.1c-0.4,7.7 -6.7,13.6 -14,13.1z" opacity="0.71" fill="#FFFFFF" enable-background="new"/>
   <g id="XMLID_71_">
    <ellipse id="XMLID_13_" class="st16" cx="441.8" cy="268.3" rx="3.1" ry="5.6" fill="#46133C"/>
    <ellipse id="XMLID_17_" class="st16" cx="411.5" cy="265" rx="3.1" ry="5.6" fill="#46133C"/>
   </g>
   <path id="XMLID_16_" class="st4" d="m464.8,374.5c0,0 -12.3,15.8 -5.3,32.7c5,12 7.5,21.6 13,29.5c6.6,-8.2 12.6,-25.8 31.3,-33.5c18.6,-7.6 16.2,-12.1 16.2,-14.7c0,-2.4 -3.2,-9.1 -7.4,-9.1" fill="none" stroke="#46133C" stroke-width="3" stroke-linecap="round" stroke-linejoin="round" stroke-miterlimit="10"/>
   <path id="XMLID_27_" class="st4" d="m490.6,424.3c0,0 -9.2,10.8 -9.2,45.4" fill="none" stroke="#46133C" stroke-width="3" stroke-linecap="round" stroke-linejoin="round" stroke-miterlimit="10"/>
   <path id="XMLID_28_" class="st4" d="m464.8,416.9c0,0 -4.3,25.9 0,30.2" fill="none" stroke="#46133C" stroke-width="3" stroke-linecap="round" stroke-linejoin="round" stroke-miterlimit="10"/>
   <path id="XMLID_36_" class="st4" d="m259.8,331.7c0,0 -5.7,6.1 -2.1,15.3c4.6,11.5 2.1,14.4 0,20.1" fill="none" stroke="#46133C" stroke-width="3" stroke-linecap="round" stroke-linejoin="round" stroke-miterlimit="10"/>
   <g id="XMLID_65_">
    <path id="XMLID_30_" class="st17" d="m484.5,233.5c2.3,2.3 -6.4,7.4 6.3,20.1c12.8,12.8 18.4,13.1 18.4,23.2s1.3,34 10.8,38.3c9.5,4.3 31.2,-29.1 28.2,-63c-2,-21.4 -11,-38.9 -21.3,-45.9c-4.5,-24.3 -30.4,-39.3 -50,-42.6c-29.5,-4.9 -46.2,11.9 -47.6,10.5c-10.8,3.3 -19.5,3.8 -26.1,3.1c-10.1,-1 -18.3,8.1 -16.3,18l0,0.1c4.1,19.7 20.1,30 24.9,33.1c9.8,6.3 18.9,8.1 21.4,8.6c9.8,1.7 18.4,0.4 26,-0.7c14.3,-2.1 22.7,-5.5 25.3,-2.8z" fill="#6D524E"/>
    <path id="XMLID_4_" class="st18" d="m484.5,233.5c2.3,2.3 -6.4,7.4 6.3,20.1c12.8,12.8 18.4,13.1 18.4,23.2s1.3,34 10.8,38.3c9.5,4.3 31.2,-29.1 28.2,-63c-2,-21.4 -11,-38.9 -21.3,-45.9c-4.5,-24.3 -30.4,-39.3 -50,-42.6c-29.5,-4.9 -46.2,11.9 -47.6,10.5c-10.8,3.3 -19.5,3.8 -26.1,3.1c-10.1,-1 -18.3,8.1 -16.3,18l0,0.1c4.1,19.7 20.1,30 24.9,33.1c9.8,6.3 18.9,8.1 21.4,8.6c9.8,1.7 18.4,0.4 26,-0.7c14.3,-2.1 22.7,-5.5 25.3,-2.8z" fill="#5F2E50"/>
    <g id="XMLID_121_" class="st19" opacity="0.34">
     <path id="XMLID_122_" class="st18" d="m526.3,203.9c-1.8,-7.4 -5.6,-13.8 -10.6,-19.3c3.3,4.8 5.8,10.3 6.9,16.3c1.2,0.8 2.5,1.8 3.7,3z" fill="#5F2E50"/>
     <path id="XMLID_135_" class="st18" d="m485.9,228.1c-2.6,-2.6 -16.7,0.8 -31,3c-7.6,1.2 -16.1,2.5 -26,0.7c-2.5,-0.4 -11.6,-2.2 -21.4,-8.6c-2.5,-1.6 -8.2,-5.3 -13.5,-11.2c6.3,9.2 14.5,14.5 17.8,16.6c9.8,6.3 18.9,8.1 21.4,8.6c9.8,1.7 18.4,0.4 26,-0.7c9.4,-1.4 16.3,-3.4 20.6,-3.8c8.4,-0.4 7,-3.7 6.1,-4.6z" fill="#5F2E50"/>
     <path id="XMLID_137_" class="st18" d="m486.6,248.2c-0.2,-0.2 -0.4,-0.5 -0.7,-0.7c1.1,1.8 2.7,3.8 4.9,6c5.7,5.7 10,9 13,11.7c-2.2,-4.8 -7.7,-7.4 -17.2,-17z" fill="#5F2E50"/>
     <path id="XMLID_138_" class="st18" d="m548.1,252.1c-1.6,-17.7 -8.1,-32.8 -16.1,-41.4c6,8.9 10.6,21.5 11.9,36c3.1,33.8 -18.7,67.2 -28.2,63c-0.5,-0.2 -0.9,-0.5 -1.3,-0.8c1.4,2.9 3.3,5.1 5.6,6.1c9.5,4.3 31.2,-29.1 28.1,-62.9z" fill="#5F2E50"/>
    </g>
    <g id="XMLID_115_">
     <path id="XMLID_117_" class="st2" d="m391.5,199.9l0,-0.1c-2,-9.9 6.2,-19.1 16.3,-18c6.6,0.7 14,-1.1 24.8,-4.4c3.5,-2.1 18.6,-14.5 48.1,-9.5c10.9,1.8 24.6,7.7 34.6,16.3c-10.5,-11.3 -25.8,-18.4 -38.5,-20.5c-29.5,-4.9 -46.2,11.9 -47.6,10.5c-10.8,3.3 -19.5,3.8 -26.1,3.1c-10.1,-1 -18.3,8.1 -16.3,18l0,0.1c2.6,12.7 10.2,21.5 16.6,27c-5,-5.4 -9.9,-12.8 -11.9,-22.5z" fill="#FFFFFF"/>
     <path id="XMLID_118_" class="st18" d="m531.5,210.8c0.5,0.4 1,0.7 1.6,1.1c-0.6,-0.7 -1.1,-1.3 -1.7,-1.9c0,0.3 0,0.5 0.1,0.8z" fill="#5F2E50"/>
    </g>
    <path id="XMLID_142_" class="st20" d="m426.3,175.2" fill="none" stroke="#4E342E" stroke-width="4" stroke-linecap="round" stroke-linejoin="round" stroke-miterlimit="10"/>
    <path id="XMLID_130_" class="st4" d="m424.3,175.8c-6.9,2.2 -15.5,2 -21.2,1.4c-10.1,-1 -18.3,8.1 -16.3,18l0,0.1c4.1,19.7 20.1,30 24.9,33.1c9.8,6.3 18.9,8.1 21.4,8.6c9.8,1.7 18.4,0.4 26,-0.7c14.4,-2.2 22.7,-5.6 25.4,-3c2.3,2.3 -6.4,7.4 6.3,20.1c12.8,12.8 18.4,13.1 18.4,23.2s1.3,34 10.8,38.3s31.2,-29.1 28.2,-63c-2,-21.4 -11,-38.9 -21.3,-45.9c-4.5,-24.3 -30.4,-39.3 -50,-42.6c-29.5,-4.9 -40.4,7 -46.9,10" fill="none" stroke="#46133C" stroke-width="3" stroke-linecap="round" stroke-linejoin="round" stroke-miterlimit="10"/>
    <path id="XMLID_8_" class="st4" d="m502,223.9c-1.1,0.3 -12.8,-3.2 -16.5,9.8" fill="none" stroke="#46133C" stroke-width="3" stroke-linecap="round" stroke-linejoin="round" stroke-miterlimit="10"/>
   </g>
   <g id="XMLID_9_">
    <path id="XMLID_77_" class="st21" d="m509,369.8c0,0 7,-8.8 17.9,2.2c11,11 18.2,11.2 26.4,22.8c9.4,13.3 9.4,31.7 -0.1,34c-2.3,0.6 -8.5,-9 -14.4,-15.2s-14.8,-10.2 -18.7,-6.4s-19,17.1 -31.4,4.7c-10.6,-10.6 31.3,-15.5 31.3,-23.3c0,-7.9 -8.7,-8.1 -11,-18.8z" fill="#FF3B61"/>
   </g>
   <g id="XMLID_146_">
    <path id="XMLID_318_" class="st21" d="m516.1,403.9c-5.6,7.2 -18.1,9.3 -28.3,7c0.2,0.3 0.5,0.7 0.9,1c12.4,12.4 29.4,-2.7 33.3,-6.6c1.9,-1.9 11.8,1.9 16.8,8.3c-3.7,-10 -19.6,-13.7 -22.7,-9.7z" fill="#FF3B61"/>
    <path id="XMLID_319_" class="st21" d="m553.3,394.8c-8.2,-11.6 -15.4,-11.8 -26.4,-22.8c-3.3,-3.3 -6.1,-4.8 -8.6,-5.3c10.7,10.4 17.8,10.8 25.8,22.2c8.6,12.2 9.3,28.9 1.9,33.2c3.2,3.9 5.8,7 7.2,6.7c9.5,-2.4 9.5,-20.8 0.1,-34z" fill="#FF3B61"/>
   </g>
   <g id="XMLID_76_">
    <path id="XMLID_19_" class="st4" d="m509,369.8c0,0 7,-8.8 17.9,2.2c11,11 18.2,11.2 26.4,22.8c9.4,13.3 9.4,31.7 -0.1,34c-2.3,0.6 -8.5,-9 -14.4,-15.2s-14.8,-10.2 -18.7,-6.4s-19,17.1 -31.4,4.7c-10.6,-10.6 31.3,-15.5 31.3,-23.3c0,-7.9 -8.7,-8.1 -11,-18.8z" fill="none" stroke="#46133C" stroke-width="3" stroke-linecap="round" stroke-linejoin="round" stroke-miterlimit="10"/>
   </g>
   <g id="XMLID_78_">
    <path id="XMLID_26_" class="st3" d="m521.1,595.4c-5.5,-3 0.2,-14.3 0.2,-14.3c-2.1,2.1 -5.9,2.8 -10.8,2.8s-3.7,-4 2.4,-10c6.1,-6.1 9.9,-7.9 13.2,-9.6c9.8,-4.9 8,-13.5 8,-13.5l23.9,-0.7c0,0 -3.5,10.2 -2.3,12.6c6.9,14.3 -4.7,29.2 -5.5,30.9c-1.3,2.7 -7.1,4.3 -10.2,2.7c-4.9,2.7 -11.6,0.1 -11.9,-0.5c-2.3,1.3 -5.5,0.5 -7,-0.4z" fill="#FFAB91"/>
    <path id="XMLID_136_" class="st3" d="m521.1,595.4c-5.5,-3 0.2,-14.3 0.2,-14.3c-2.1,2.1 -5.9,2.8 -10.8,2.8s-3.7,-4 2.4,-10c6.1,-6.1 9.9,-7.9 13.2,-9.6c9.8,-4.9 8,-13.5 8,-13.5l23.9,-0.7c0,0 -3.5,10.2 -2.3,12.6c6.9,14.3 -4.7,29.2 -5.5,30.9c-1.3,2.7 -7.1,4.3 -10.2,2.7c-4.9,2.7 -11.6,0.1 -11.9,-0.5c-2.3,1.3 -5.5,0.5 -7,-0.4z" fill="#FFAB91"/>
    <g id="XMLID_167_">
     <path id="XMLID_168_" class="st2" d="m512,576.9c6.6,-6.6 11.5,-8.3 17.9,-11.7c8.8,-4.7 7.6,-12.8 7.4,-15l-3.1,0.7c0,0 1.8,8.6 -8,13.5c-3.3,1.7 -7.1,3.5 -13.2,9.6c-6.1,6.1 -7.3,10 -2.4,10l0,0c-1.2,-1.8 -2.6,-3.2 1.4,-7.1z" fill="#FFFFFF"/>
    </g>
    <g id="XMLID_159_" class="st22" opacity="0.43">
     <path id="XMLID_162_" class="st3" d="m514,581.8c-1,1 -2.4,1.7 -4.1,2.2c0.2,0 0.4,0 0.6,0c0.9,0 1.7,0 2.5,-0.1c0.6,-1.3 1,-2.1 1,-2.1z" fill="#FFAB91"/>
     <path id="XMLID_165_" class="st3" d="m558,550.2l-5.7,0.2c-0.9,2.9 -3.1,11.2 -2.1,13.3c7.3,15.1 -2.2,35.2 -7.7,33.4c3,0.2 6.6,-1.3 7.6,-3.3c0.8,-1.7 12.4,-16.6 5.5,-30.9c-1.1,-2.5 2.4,-12.7 2.4,-12.7z" fill="#FFAB91"/>
    </g>
    <path id="XMLID_43_" class="st4" d="m521.1,595.4c-5.5,-3 0.2,-14.3 0.2,-14.3c-2.1,2.1 -6.1,4.3 -10.8,2.8c-2.7,-0.9 -3.7,-4 2.4,-10c6.1,-6.1 9.9,-7.9 13.2,-9.6c9.8,-4.9 8,-13.5 8,-13.5l23.9,-0.7c0,0 -3.5,10.2 -2.3,12.6c6.9,14.3 -4.7,29.2 -5.5,30.9c-1.3,2.7 -7.1,4.3 -10.2,2.7c-4.9,2.7 -11.6,0.1 -11.9,-0.5c-2.3,1.3 -5.5,0.5 -7,-0.4z" fill="none" stroke="#46133C" stroke-width="3" stroke-linecap="round" stroke-linejoin="round" stroke-miterlimit="10"/>
    <path id="XMLID_178_" class="st4" d="m529.9,591.6c0,0 -0.3,2 -1.8,4.3" fill="none" stroke="#46133C" stroke-width="3" stroke-linecap="round" stroke-linejoin="round" stroke-miterlimit="10"/>
    <path id="XMLID_179_" class="st4" d="m540.9,591.1c0,0 -0.9,2.7 -0.9,5.3" fill="none" stroke="#46133C" stroke-width="3" stroke-linecap="round" stroke-linejoin="round" stroke-miterlimit="10"/>
   </g>
   <path id="XMLID_39_" class="st21" d="m528.2,532.1c0,0 9.4,-4.3 23.4,-2.2c14,2.2 17.5,2.2 17.5,2.2l-4.1,18.1c0,0 -34.4,0 -36.8,0c-2.4,0 0,-3 0,-3l0,-15.1l0,0z" fill="#FF3B61"/>
   <path id="XMLID_320_" class="st2" d="m532.5,547.2l0,-15.1c0,0 5.1,-2.3 13.4,-2.7c-10.8,-0.5 -17.7,2.7 -17.7,2.7l0,15.1c0,0 -2.4,3 0,3c0.5,0 2,0 4.3,0c-2.4,0 0,-3 0,-3z" fill="#FFFFFF"/>
   <path id="XMLID_21_" class="st4" d="m528.2,532.1c0,0 9.4,-4.3 23.4,-2.2c14,2.2 17.5,2.2 17.5,2.2l-4.1,18.1c0,0 -34.4,0 -36.8,0c-2.4,0 0,-3 0,-3l0,-15.1l0,0z" fill="none" stroke="#46133C" stroke-width="3" stroke-linecap="round" stroke-linejoin="round" stroke-miterlimit="10"/>
   <g id="XMLID_70_">
    <line id="XMLID_72_" class="st4" x1="389.7" y1="261.7" x2="377.6" y2="260.2" fill="none" stroke="#46133C" stroke-width="3" stroke-linecap="round" stroke-linejoin="round" stroke-miterlimit="10"/>
    <path id="XMLID_10_" class="st4" d="m407.7,283.6l-18.5,-1.2c-7,-0.4 -12.3,-6.9 -12,-14.3l0.4,-8.7c0.4,-7.5 6.3,-13.3 13.3,-13.1l18.5,0.6c7.3,0.2 13.1,6.7 12.7,14.5l-0.4,9.1c-0.4,7.7 -6.7,13.6 -14,13.1z" fill="none" stroke="#46133C" stroke-width="3" stroke-linecap="round" stroke-linejoin="round" stroke-miterlimit="10"/>
    <path id="XMLID_11_" class="st4" d="m455.3,286.6l-16.4,-2.2c-6.2,-0.8 -10.5,-7.3 -9.7,-14.4l1,-8.3c0.8,-7.1 6.5,-12.4 12.7,-11.8l16.4,1.6c6.5,0.6 11.2,7.2 10.3,14.6l-1,8.7c-0.8,7.4 -6.8,12.7 -13.3,11.8z" fill="none" stroke="#46133C" stroke-width="3" stroke-linecap="round" stroke-linejoin="round" stroke-miterlimit="10"/>
    <line id="XMLID_15_" class="st4" x1="504.3" y1="265" x2="469.5" y2="261.4" fill="none" stroke="#46133C" stroke-width="3" stroke-linecap="round" stroke-linejoin="round" stroke-miterlimit="10"/>
    <path id="XMLID_45_" class="st11" d="m422.6,261.5c0,0 4,-2.3 7.1,0.2" fill="none" stroke="#46133C" stroke-width="4" stroke-linecap="round" stroke-linejoin="round" stroke-miterlimit="10"/>
   </g>
   <path id="XMLID_44_" class="st3" d="m499.2,271.3c0,0 5.5,-9.9 10.5,-4.9s4.4,16.8 -1.7,27.4c-4.3,7.3 -10.8,4.1 -8.7,0" fill="#FFAB91"/>
   <path id="XMLID_91_" class="st3" d="m499.2,271.3c0,0 5.5,-9.9 10.5,-4.9s4.4,16.8 -1.7,27.4c-4.3,7.3 -10.8,4.1 -8.7,0" fill="#FFAB91"/>
   <path id="XMLID_156_" class="st13" d="m509.6,266.4c-2.6,-2.6 -5.2,-1.2 -7.2,0.6c1.1,-0.1 2.2,0.3 3.3,1.4c5,5 4.4,16.8 -1.7,27.4c-0.5,0.9 -1.1,1.7 -1.7,2.3c1.8,-0.1 3.9,-1.4 5.6,-4.4c6.1,-10.5 6.7,-22.3 1.7,-27.3z" opacity="0.43" fill="#FFAB91" enable-background="new"/>
   <path id="XMLID_2_" class="st4" d="m499.5,269.7c0,0 5.1,-8.3 10.1,-3.3c5,5 4.4,16.8 -1.7,27.4c-4.3,7.3 -11.6,5 -11.6,-1.2" fill="none" stroke="#46133C" stroke-width="3" stroke-linecap="round" stroke-linejoin="round" stroke-miterlimit="10"/>
   <g id="XMLID_48_">
    <ellipse id="XMLID_47_" class="st16" cx="481.4" cy="473.1" rx="3.9" ry="4.5" fill="#46133C"/>
    <ellipse id="XMLID_46_" class="st11" cx="481.4" cy="473.1" rx="3.9" ry="4.5" fill="none" stroke="#46133C" stroke-width="4" stroke-linecap="round" stroke-linejoin="round" stroke-miterlimit="10"/>
   </g>
   <g id="XMLID_50_">
    <ellipse id="XMLID_52_" class="st16" cx="464.8" cy="449.9" rx="3.9" ry="4.5" fill="#46133C"/>
    <ellipse id="XMLID_51_" class="st11" cx="464.8" cy="449.9" rx="3.9" ry="4.5" fill="none" stroke="#46133C" stroke-width="4" stroke-linecap="round" stroke-linejoin="round" stroke-miterlimit="10"/>
   </g>
   <path id="XMLID_53_" class="st4" d="m488.7,420.6c0,0 3.9,0.7 5.5,4.7" fill="none" stroke="#46133C" stroke-width="3" stroke-linecap="round" stroke-linejoin="round" stroke-miterlimit="10"/>
   <path id="XMLID_67_" class="st4" d="m501.9,282.6c0,0 0.9,-5.5 4.9,-6.7" fill="none" stroke="#46133C" stroke-width="3" stroke-linecap="round" stroke-linejoin="round" stroke-miterlimit="10"/>
   <g id="XMLID_141_">
    <path id="XMLID_110_" class="st16" d="m438.5,205.8c0,0 -1,0 -2.6,-0.6c-0.8,-0.3 -1.7,-0.7 -2.8,-1.3c-1,-0.6 -2.2,-1.2 -3.4,-2c-0.6,-0.4 -1.3,-0.8 -1.9,-1.2s-1.3,-0.9 -2,-1.3c-1.4,-0.9 -2.8,-2 -4.2,-3.1c-0.7,-0.6 -1.4,-1.1 -2.2,-1.7c-0.7,-0.6 -1.4,-1.2 -2.1,-1.8c-1.4,-1.2 -2.8,-2.6 -4.2,-3.9c-0.7,-0.7 -1.4,-1.4 -2,-2c-0.7,-0.7 -1.3,-1.4 -2,-2.1c-1.3,-1.4 -2.5,-2.8 -3.7,-4.2c-1.1,-1.4 -2.2,-2.8 -3.2,-4.1s-1.9,-2.6 -2.7,-3.7c-0.8,-1.2 -1.5,-2.3 -2.1,-3.3s-1.1,-1.9 -1.5,-2.6c-0.8,-1.5 -1.2,-2.4 -1.2,-2.4c-0.1,-0.2 0,-0.4 0.2,-0.4c0.1,-0.1 0.3,0 0.4,0.1l0,0c0,0 0.7,0.7 1.8,2c0.5,0.6 1.2,1.4 1.9,2.3c0.7,0.9 1.6,1.9 2.4,3c0.9,1.1 1.8,2.3 2.8,3.6c1,1.2 2.1,2.6 3.3,3.9c1.2,1.3 2.4,2.7 3.7,4c0.6,0.7 1.3,1.3 1.9,2c0.7,0.7 1.3,1.3 2,2s1.4,1.3 2,1.9c0.7,0.6 1.3,1.3 2.1,1.9c0.7,0.6 1.4,1.2 2.1,1.8s1.4,1.1 2.1,1.7c0.7,0.6 1.4,1.1 2,1.6c0.7,0.5 1.3,1 2,1.5s1.3,0.9 1.9,1.4c0.6,0.4 1.2,0.8 1.8,1.2c1.2,0.8 2.3,1.4 3.2,2c1,0.6 1.8,1.1 2.5,1.6c1.4,1 2,1.8 2,1.8c0.1,0.1 0.1,0.3 -0.1,0.5c-0.1,-0.1 -0.1,-0.1 -0.2,-0.1z" fill="#46133C"/>
   </g>
   <g id="XMLID_134_">
    <path id="XMLID_108_" class="st16" d="m467.5,212.5c0,0 -0.3,0.5 -1,0.8c-0.3,0.2 -0.7,0.2 -1.2,0.2s-1,0.1 -1.6,0.1c-2.3,0.1 -5.3,0.1 -8.4,-0.3c-1.5,-0.2 -3,-0.5 -4.4,-0.8c-0.7,-0.2 -1.4,-0.4 -2,-0.5c-0.6,-0.2 -1.2,-0.4 -1.8,-0.6c-0.5,-0.2 -1,-0.4 -1.5,-0.5c-0.4,-0.2 -0.8,-0.5 -1,-0.7c-0.2,-0.3 -0.4,-0.6 -0.5,-0.8s-0.1,-0.4 -0.1,-0.4s0.1,-0.1 0.4,-0.2c0.2,-0.1 0.5,-0.2 0.9,-0.3s0.8,-0.1 1.2,0c0.4,0.1 0.9,0.2 1.4,0.4c0.5,0.1 1.1,0.3 1.7,0.4c0.6,0.1 1.2,0.3 1.9,0.4c0.7,0.1 1.4,0.3 2.1,0.4c0.7,0.1 1.4,0.2 2.1,0.3c1.4,0.2 2.9,0.4 4.2,0.5c1.4,0.1 2.6,0.2 3.7,0.3c0.5,0 1,0 1.5,0c0.4,0 0.8,0 1.2,0.2c0.3,0.1 0.6,0.3 0.8,0.4c0.2,0.1 0.3,0.2 0.3,0.2c0.2,0.1 0.2,0.4 0.1,0.5z" fill="#46133C"/>
   </g>
   <g id="XMLID_140_">
    <path id="XMLID_100_" class="st16" d="m488.2,200.7c0,0 -1.4,0.7 -3.9,1.1c-1.3,0.2 -2.8,0.3 -4.6,0.2c-1.8,-0.1 -3.8,-0.2 -5.9,-0.4c-2.2,-0.2 -4.5,-0.6 -7,-1.1c-2.4,-0.5 -5,-1.1 -7.6,-1.9c-1.3,-0.4 -2.6,-0.9 -3.9,-1.3c-1.3,-0.5 -2.6,-1 -4,-1.6c-1.3,-0.6 -2.6,-1.1 -3.9,-1.8c-0.6,-0.3 -1.3,-0.6 -1.9,-1l-1.9,-1.1c-2.5,-1.4 -5,-3 -7.3,-4.7c-1.2,-0.8 -2.3,-1.7 -3.4,-2.5c-1.1,-0.9 -2.1,-1.8 -3.2,-2.6c-2,-1.8 -4,-3.6 -5.7,-5.4c-0.9,-0.9 -1.7,-1.8 -2.5,-2.6c-0.8,-0.9 -1.6,-1.7 -2.2,-2.5c-1.4,-1.7 -2.7,-3.2 -3.6,-4.7c-1,-1.4 -1.9,-2.7 -2.5,-3.8c-1.3,-2.2 -1.9,-3.5 -1.9,-3.5c-0.1,-0.2 0,-0.5 0.2,-0.6s0.4,0 0.5,0.1l0,0c0,0 1,1.1 2.6,3c0.8,1 1.8,2.1 2.9,3.5s2.4,2.8 3.7,4.4c0.7,0.8 1.5,1.6 2.2,2.4c0.8,0.8 1.6,1.7 2.5,2.5c1.7,1.7 3.6,3.4 5.6,5.2c1,0.8 2.1,1.7 3.1,2.5c1.1,0.8 2.2,1.6 3.3,2.4c2.3,1.6 4.7,3.1 7.1,4.4c1.2,0.7 2.5,1.3 3.7,2c1.2,0.6 2.5,1.2 3.8,1.8s2.5,1 3.8,1.5c1.3,0.4 2.5,0.9 3.8,1.3c2.5,0.8 5,1.5 7.3,2c2.4,0.5 4.6,0.9 6.7,1.2s4,0.5 5.7,0.6s3.2,0.2 4.4,0.3c2.5,0.3 3.9,0.6 3.9,0.6c0.1,-0.1 0.1,0 0.1,0.1c0,-0.1 0,0 0,0z" fill="#46133C"/>
   </g>
   <g id="XMLID_5_">
    <path id="XMLID_90_" class="st3" d="m331,408.6c2.5,-15.9 -18.3,-22.2 -26.5,-15.5c-4.1,21.7 -21.1,35.2 -0.7,43.6c12.2,5 13,-2.9 19.4,3.6c8.5,8.5 14.6,11.9 14.6,11.9l17.5,-15.5c-4.2,-3.1 -26.7,-12.9 -24.3,-28.1z" fill="#FFAB91"/>
    <path id="XMLID_113_" class="st13" d="m327,438.4c-7.4,-8.7 -9.2,-4.7 -18,-7.6c-20.4,-6.9 -8,-18.3 -2.9,-38.8c-0.6,0.3 -1.1,0.7 -1.6,1c-4.1,21.7 -21.1,35.2 -0.7,43.6c12.2,5 13,-2.9 19.4,3.6c8.5,8.5 14.6,11.9 14.6,11.9l3,-2.7c-1.1,-0.5 -6.6,-2.5 -13.8,-11z" opacity="0.43" fill="#FFAB91" enable-background="new"/>
    <path id="XMLID_157_" class="st2" d="m328.7,407.6c-1.2,16.1 18.8,26.8 28.6,30.8l-2,-1.7c-4.1,-3.1 -26.7,-12.9 -24.3,-28.1c2.4,-14.9 -17.3,-21.4 -26.5,-15.5c7.9,-4.8 25.1,0.9 24.2,14.5z" fill="#FFFFFF"/>
    <path id="XMLID_87_" class="st4" d="m331,408.6c2.5,-15.9 -18.3,-22.2 -26.5,-15.5c-6.6,4.9 -21.1,35.2 -0.7,43.6c12.2,5 13,-2.9 19.4,3.6c8.5,8.5 14.6,11.9 14.6,11.9l17.5,-15.5c-4.2,-3.1 -26.7,-12.9 -24.3,-28.1z" fill="none" stroke="#46133C" stroke-width="3" stroke-linecap="round" stroke-linejoin="round" stroke-miterlimit="10"/>
    <g id="XMLID_66_">
     <path id="XMLID_24_" class="st23" d="m290,383.3l-13.5,0l0,7.1l13.5,0c3.2,0 5.8,3 5.8,6.6l0,11.4c0,3.7 -2.6,6.6 -5.8,6.6l-13.5,0l0,7.1l13.5,0c6.6,0 11.9,-6.1 11.9,-13.7l0,-11.4c0,-7.6 -5.3,-13.7 -11.9,-13.7z" fill="#A8DDEF"/>
     <path id="XMLID_54_" class="st24" d="m290,383.3l-13.5,0l0,7.1l13.5,0c3.2,0 5.8,3 5.8,6.6l0,11.4c0,3.7 -2.6,6.6 -5.8,6.6l-13.5,0l0,7.1l13.5,0c6.6,0 11.9,-6.1 11.9,-13.7l0,-11.4c0,-7.6 -5.3,-13.7 -11.9,-13.7z" opacity="0.42" fill="#939EC5" enable-background="new"/>
     <path id="XMLID_84_" class="st4" d="m290,383.3l-13.5,0l0,7.1l12.3,0c3.2,0 5.8,3 5.8,6.6l0,11.4c0,3.7 -2.6,6.6 -5.8,6.6l-12.3,0l0,7.1l13.5,0c6.6,0 11.9,-6.1 11.9,-13.7l0,-11.4c0,-7.6 -5.3,-13.7 -11.9,-13.7z" fill="none" stroke="#46133C" stroke-width="3" stroke-linecap="round" stroke-linejoin="round" stroke-miterlimit="10"/>
     <path id="XMLID_33_" class="st23" d="m229.4,372.1c-2.9,11.9 -2.7,25.7 0.6,37.6c2.7,9.4 7.7,16.5 12.7,21.1l28.3,0c5.1,-4.5 10.1,-11.6 12.7,-21.1c3.4,-11.9 3.5,-25.7 0.6,-37.6l-54.9,0z" fill="#A8DDEF"/>
     <path id="XMLID_34_" class="st23" d="m229.4,372.1c-2.9,11.9 -2.7,25.7 0.6,37.6c2.7,9.4 7.7,16.5 12.7,21.1l28.3,0c5.1,-4.5 10.1,-11.6 12.7,-21.1c3.4,-11.9 3.5,-25.7 0.6,-37.6l-54.9,0z" fill="#A8DDEF"/>
     <path id="XMLID_166_" class="st2" d="m233.5,409.8c-3.4,-11.9 -3.5,-25.7 -0.6,-37.6l-3.4,0c-2.9,11.9 -2.7,25.7 0.6,37.6c2.7,9.4 7.7,16.5 12.7,21.1l3.4,0c-5,-4.6 -10.1,-11.7 -12.7,-21.1z" fill="#FFFFFF"/>
     <path id="XMLID_116_" class="st24" d="m284.5,372.1l-9.4,0c2.8,12.8 3.2,29.3 0,40c-2.3,7.6 -8.4,18 -14.8,18.7l10.8,0c5.1,-4.5 10.1,-11.6 12.7,-21.1c3.4,-11.9 3.5,-25.7 0.7,-37.6z" opacity="0.42" fill="#939EC5" enable-background="new"/>
     <path id="XMLID_41_" class="st4" d="m229.4,372.1c-2.9,11.9 -2.7,25.7 0.6,37.6c2.7,9.4 7.7,16.5 12.7,21.1l28.3,0c5.1,-4.5 10.1,-11.6 12.7,-21.1c3.4,-11.9 3.5,-25.7 0.6,-37.6l-54.9,0z" fill="none" stroke="#46133C" stroke-width="3" stroke-linecap="round" stroke-linejoin="round" stroke-miterlimit="10"/>
    </g>
    <path id="XMLID_86_" class="st3" d="m297.7,430.1c7.5,-0.9 10.9,-6.2 6.7,-9.6c-2,-1.7 -10.7,-1 -13.6,0.8c-3.1,2 0.3,9.6 6.9,8.8z" fill="#FFAB91"/>
    <path id="XMLID_18_" class="st4" d="m297.7,430.1c7.5,-0.9 10.9,-6.2 6.7,-9.6c-2,-1.7 -10.7,-1 -13.6,0.8c-3.1,2 0.3,9.6 6.9,8.8z" fill="none" stroke="#46133C" stroke-width="3" stroke-linecap="round" stroke-linejoin="round" stroke-miterlimit="10"/>
    <path id="XMLID_82_" class="st3" d="m291.3,414.3c5.9,-0.5 10.8,-2.7 9.6,-6.6c-0.9,-2.9 -8.9,-6.4 -12.8,-3.3c-2.7,2.2 -2.3,10.3 3.2,9.9z" fill="#FFAB91"/>
    <path id="XMLID_88_" class="st4" d="m291.3,414.3c5.9,-0.5 10.8,-2.7 9.6,-6.6c-0.9,-2.9 -8.9,-6.4 -12.8,-3.3c-2.7,2.2 -2.3,10.3 3.2,9.9z" fill="none" stroke="#46133C" stroke-width="3" stroke-linecap="round" stroke-linejoin="round" stroke-miterlimit="10"/>
    <path id="XMLID_85_" class="st3" d="m292.1,402.8c10.5,1.3 16.5,-5.3 8.2,-10c-3.7,-2.1 -10.4,-3.3 -13.1,-0.2c-2.7,3.2 0.3,9.7 4.9,10.2z" fill="#FFAB91"/>
    <path id="XMLID_25_" class="st4" d="m292.1,402.8c10.5,1.3 16.5,-5.3 8.2,-10c-3.7,-2.1 -10.4,-3.3 -13.1,-0.2c-2.7,3.2 0.3,9.7 4.9,10.2z" fill="none" stroke="#46133C" stroke-width="3" stroke-linecap="round" stroke-linejoin="round" stroke-miterlimit="10"/>
    <path id="XMLID_23_" class="st3" d="m312,424.6c0,0 -5.4,-5.2 -3.5,-12.3s3.5,-9.3 3.5,-9.3s-11.2,2.1 -11.2,-2.4s2.9,-11.7 16.7,-9.6" fill="#FFAB91"/>
    <path id="XMLID_83_" class="st4" d="m312,424.6c0,0 -4.2,-5 -3.5,-12.3c0.7,-7.1 4.7,-9.7 4.7,-9.7s-12.8,3.5 -13.8,-0.9s4.7,-14.2 20.1,-10.1" fill="none" stroke="#46133C" stroke-width="3" stroke-linecap="round" stroke-linejoin="round" stroke-miterlimit="10"/>
   </g>
   <path id="XMLID_128_" class="st4" d="m427.5,331.5c0,0 4.2,0.9 6.6,-1.5" fill="none" stroke="#46133C" stroke-width="3" stroke-linecap="round" stroke-linejoin="round" stroke-miterlimit="10"/>
   <g id="XMLID_103_">
    <path id="XMLID_40_" class="st21" d="m335,457.2c0,0 8.8,9.2 12.9,13.3c5.5,-1 2.1,2.4 5.5,-1s28.2,-24.5 28.2,-24.5l-19,-14.1c0,-0.1 -27.6,20.8 -27.6,26.3z" fill="#FF3B61"/>
    <g id="XMLID_148_">
     <g id="svg_171">
      <path id="XMLID_193_" class="st8" d="m352.3,466.6c-2.9,-1.5 -12.9,-13.3 -12.9,-13.3c0,-2 3.7,-6.1 8.4,-10.5c-6.6,5.7 -12.8,11.8 -12.8,14.4c0,0 8.8,9.2 12.9,13.3c5.5,-1 2.1,2.4 5.5,-1c0.5,-0.5 1.4,-1.3 2.6,-2.4c-0.3,-0.1 -0.8,0.9 -3.7,-0.5z" fill="#EE406D"/>
      <path id="XMLID_192_" class="st8" d="m358.7,464.7c8.3,-7.3 23,-19.8 23,-19.8l-0.1,-0.1c-6.7,5.8 -19,16.3 -22.9,19.9z" fill="#EE406D"/>
     </g>
    </g>
    <path id="XMLID_153_" class="st2" d="m362.6,430.8c0,0 -1.2,0.9 -3,2.3l18.9,14.1c0,0 -21.5,18.3 -27.2,23.6c0.4,0.4 0.2,0.6 2.1,-1.3c3.4,-3.4 28.2,-24.5 28.2,-24.5l-19,-14.2z" fill="#FFFFFF"/>
    <path id="XMLID_35_" class="st4" d="m335,457.2c0,0 13.4,17.3 18.4,12.3c3.4,-3.4 28.2,-24.5 28.2,-24.5l-19,-14.1c0,-0.1 -27.6,20.8 -27.6,26.3z" fill="none" stroke="#46133C" stroke-width="3" stroke-linecap="round" stroke-linejoin="round" stroke-miterlimit="10"/>
   </g>
   <path id="XMLID_22_" class="st4" d="m247,320.5c0,0 -5.3,9.8 -2.6,17.6c2.7,7.7 5.5,11.4 2.6,17" fill="none" stroke="#46133C" stroke-width="3" stroke-linecap="round" stroke-linejoin="round" stroke-miterlimit="10"/>
  </g>
 </g>

</svg>